<?xml version="1.0" encoding="UTF-8" standalone="no"?>
<svg
   xmlns:dc="http://purl.org/dc/elements/1.1/"
   xmlns:cc="http://creativecommons.org/ns#"
   xmlns:rdf="http://www.w3.org/1999/02/22-rdf-syntax-ns#"
   xmlns:svg="http://www.w3.org/2000/svg"
   xmlns="http://www.w3.org/2000/svg"
   xmlns:sodipodi="http://sodipodi.sourceforge.net/DTD/sodipodi-0.dtd"
   xmlns:inkscape="http://www.inkscape.org/namespaces/inkscape"
   version="1.0"
   width="517.85809"
   height="234.68759"
   viewBox="0 0 517.85809 234.68759"
   preserveAspectRatio="xMidYMid meet"
   id="svg60"
   sodipodi:docname="xr-lisca.svg"
   inkscape:version="0.92.5 (2060ec1f9f, 2020-04-08)">
  <metadata
     id="metadata66">
    <rdf:RDF>
      <cc:Work
         rdf:about="">
        <dc:format>image/svg+xml</dc:format>
        <dc:type
           rdf:resource="http://purl.org/dc/dcmitype/StillImage" />
        <dc:title></dc:title>
      </cc:Work>
    </rdf:RDF>
  </metadata>
  <defs
     id="defs64" />
  <sodipodi:namedview
     pagecolor="#ffffff"
     bordercolor="#666666"
     borderopacity="1"
     objecttolerance="10"
     gridtolerance="10"
     guidetolerance="10"
     inkscape:pageopacity="0"
     inkscape:pageshadow="2"
     inkscape:window-width="1920"
     inkscape:window-height="1015"
     id="namedview62"
     showgrid="false"
     inkscape:zoom="1.1835262"
     inkscape:cx="269.36433"
     inkscape:cy="99.229896"
     inkscape:window-x="0"
     inkscape:window-y="0"
     inkscape:window-maximized="1"
     inkscape:current-layer="svg60" />
  <g
     id="g58"
     style="fill:#000000"
     transform="translate(-21.036762,-118.67443)">
    <path
       d="m 195.1,352.5 c -8.6,-1.6 -15,-3.9 -20.3,-7.2 -2.1,-1.2 -4.4,-2.3 -5.3,-2.3 -1.7,0 -8.8,-4.9 -15.3,-10.6 -2.6,-2.3 -7.1,-5.6 -9.9,-7.4 -2.9,-1.7 -5.3,-3.7 -5.3,-4.3 0,-0.6 -1,-0.1 -2.3,1.1 -2.9,2.7 -7.1,2.8 -9,0.2 -0.7,-1 -2.2,-1.9 -3.3,-1.9 -1,0 -6.4,-0.4 -11.9,-0.9 -8.4,-0.8 -11.1,-1.5 -16.5,-4.3 l -6.5,-3.4 h -27 c -23.3,0 -27.3,-0.2 -29.5,-1.6 -1.4,-0.9 -3.8,-2 -5.5,-2.4 -5.4,-1.2 -7.6,-4.5 -5.9,-9 0.4,-0.9 5.8,-4.9 12,-9 6.3,-4.1 11.4,-7.8 11.4,-8.2 0,-0.4 -1.8,-3.7 -4,-7.3 -4.7,-7.5 -9.5,-21.8 -8.6,-25.4 0.4,-1.8 2.9,-3.5 10.1,-7.1 5.3,-2.6 11.5,-6.3 13.8,-8.3 2.3,-1.9 7.5,-5 11.5,-6.8 4.1,-1.9 10.6,-5.7 14.5,-8.6 4,-2.8 9.4,-6 12,-7 2.7,-1 9.5,-4.3 15,-7.2 10.1,-5.4 32.1,-13.1 40.5,-14.3 5,-0.7 5.2,-0.2 1.8,8 l -2.3,5.8 2.6,4.9 c 2.8,5.3 4.1,6.3 4.1,3 0,-2.5 3.6,-11.9 5.5,-14.4 2.3,-3 2.9,-1.2 1.7,5.1 -0.6,3.2 -1.4,8.6 -1.7,12 -0.7,6.1 -0.6,6.2 2.3,7.7 l 2.9,1.5 0.7,-6.7 c 0.4,-3.7 1.2,-8.7 1.8,-11.2 1,-4.3 4.4,-12 5.2,-12 0.2,0 0.2,6.2 -0.1,13.8 -0.5,14.1 0.3,19.2 3.1,19.2 2.3,0 4.6,-4.1 4.6,-8.3 0,-5.6 2.9,-18.5 5.1,-22.8 2.5,-5 4.4,-6.2 3.5,-2.3 -1,4.5 -1.9,24.9 -1.2,27.8 0.4,1.6 1.3,2.6 2.5,2.6 3.4,0 4.8,-3.1 5.4,-12.1 0.3,-6.5 1.1,-10.2 3.2,-14.7 2.5,-5.6 5.9,-10.1 6.9,-9.1 0.2,0.2 -0.7,4.5 -2,9.4 -2.9,11.3 -3.2,21.5 -0.6,23.8 1.7,1.6 2,1.5 4,-0.3 1.4,-1.3 2.2,-3.3 2.2,-5.4 0,-8.8 4.7,-23.4 8.5,-26.6 2.4,-2 2.6,-0.7 1,6.4 -2.1,9 -3.5,20.8 -2.9,23.4 1.2,4.2 7.4,3.3 7.4,-1.1 0,-5.7 6,-21.7 9.8,-25.9 2.8,-3.3 3,-1.8 0.5,6 -1.3,4.2 -2.7,11.2 -3,15.4 -0.5,6.7 -0.4,7.8 1.1,8.4 2.6,1 4.1,-1.2 6,-8.8 2.3,-8.6 6.6,-17.6 10,-20.7 3.5,-3.3 4,-2.3 1.6,3.4 -2.7,6.3 -6,19 -6,23.1 0,7 6,4.5 8.5,-3.4 3.4,-11.1 12.1,-25.2 14.6,-23.6 0.5,0.3 -0.2,2.7 -1.6,5.4 -5.4,10.7 -9,24.9 -6.7,26.4 2.3,1.4 5.1,-0.8 6.7,-5.2 4.7,-12.3 12.1,-23.2 15.8,-23.2 1.2,0 0.6,2 -2.8,9.3 -5.2,10.8 -8.1,20.7 -6.4,21.8 2.5,1.5 6.7,-2.1 9,-7.9 2.9,-7.4 6.3,-12.8 10.2,-16.4 5.3,-4.8 6.2,-3.5 2.3,3.5 -4.5,8.1 -8.8,20.9 -7.5,22.2 0.5,0.5 2.2,1 3.8,1.1 2.4,0.1 3,-0.4 4.1,-3.5 1.9,-5.3 5.6,-11.3 10.1,-16.5 5.4,-6.1 7.8,-6.2 4,-0.2 -1.5,2.5 -4.3,7.9 -6.1,12.1 -3.8,8.6 -3.4,10.9 1.6,11.1 2.6,0.1 3.2,-0.6 6.4,-7 3.4,-6.9 13.3,-18.6 14.6,-17.3 0.4,0.3 -0.8,2.9 -2.6,5.7 -3.8,5.9 -7.9,15.6 -8,18.6 0,2.2 2,3.6 5.4,3.8 1.5,0.1 2.9,-1.8 5.8,-7.5 4,-8.1 11,-16.9 13.4,-16.9 1,0 0.3,2.3 -2.6,8 -6.2,12.4 -8.1,17.5 -6.7,18.9 2.2,2.2 4.3,1 7.1,-4.4 4.4,-8.4 13.5,-18 15.3,-16.1 0.3,0.2 -0.4,1.7 -1.5,3.3 -1.1,1.5 -3.8,6.6 -6.1,11.1 -4,7.9 -4.1,8.5 -2.4,9.8 3.6,2.7 5.6,1.4 9.5,-5.8 3.2,-6 9.9,-13.8 11.9,-13.8 0.6,0 0.9,0.3 0.7,0.8 -0.2,0.4 -2.5,5.1 -5.2,10.5 -4.7,9.4 -4.8,9.8 -3.1,11.7 1,1.1 3,2 4.4,2 2.1,0 3.1,-1 5.5,-5.6 3,-5.7 12.2,-16.1 13.3,-15 0.3,0.3 -1.1,3.7 -3.1,7.5 -2,3.8 -4.3,8.8 -5.1,11 -1.3,3.7 -1.2,4.2 0.3,4.9 3,1.5 3.9,0.8 8.2,-5.5 2.3,-3.5 5.3,-7.2 6.7,-8.3 5.1,-4 5.3,-2.2 0.7,6.5 -3.7,6.9 -4.3,8.7 -3.3,9.8 1.3,1.4 5.9,1.1 5.9,-0.3 0,-0.4 1.8,-3.5 4,-6.8 3.8,-5.6 8.5,-10 9.7,-8.8 0.3,0.2 -1.4,4.2 -3.6,8.7 -2.4,4.8 -3.8,8.6 -3.3,9.1 2,2 5.8,-0.4 8.7,-5.4 3,-5.1 9.3,-11.4 10.3,-10.4 0.3,0.3 -1.2,4.2 -3.3,8.7 -3,6.4 -3.5,8.3 -2.4,8.9 0.9,0.6 2.2,-0.5 4.5,-3.8 3.5,-5.2 9.4,-11.2 9.4,-9.5 0,0.6 -1.1,3.6 -2.5,6.8 -3.2,7.2 -2.8,9.3 0.7,3.4 2.8,-4.8 7.4,-9.6 8.4,-8.7 0.3,0.3 -0.6,2.9 -2,5.7 -1.4,2.8 -2.6,6.1 -2.6,7.3 0,1.8 0.9,0.9 3.9,-3.7 3.8,-6.1 7.7,-10.2 8.6,-9.3 0.3,0.2 -0.9,3.3 -2.5,6.7 -4,8.2 -2.8,9.7 1.9,2.4 3.9,-6 8.1,-10.4 8.1,-8.6 0,0.6 -1.1,3.5 -2.5,6.5 -3.4,7.4 -3.1,9.5 0.5,2.9 3.7,-6.6 4.9,-8.1 6.6,-8.1 1.1,0 0.9,1.1 -0.6,5 -2.9,7.4 -2.4,9.3 0.9,3.5 3.4,-5.9 7.1,-9.7 7.1,-7.3 0,0.9 -0.7,3.2 -1.5,5.1 -3,7.1 -1.3,7 2,-0.1 2.7,-5.7 5.3,-9.2 12,-15.8 4.6,-4.7 9.4,-8.7 10.5,-8.9 2.3,-0.4 15.2,-9.6 14.5,-10.3 -0.2,-0.2 -3,1.6 -6.2,4 -6.5,5 -8.3,6.1 -8.3,5.4 0,-1 26.6,-20.4 40.3,-29.4 7.9,-5.3 14.4,-8.9 15.2,-8.6 2,0.8 2.8,6 2.2,15.6 -0.6,10.4 -1.1,13.8 -4.8,31.8 -6.7,32.7 -6.7,36.1 1.1,69.8 4.4,19 4.7,22 2.5,22.9 -2.3,0.8 -13.6,-3.1 -24.3,-8.4 -11.3,-5.7 -30.8,-18.6 -30.4,-20.2 0.1,-0.7 -0.2,-1 -0.8,-0.6 -0.5,0.3 -3.6,-1.3 -6.8,-3.7 -3.1,-2.5 -7,-5.1 -8.5,-5.8 -3.3,-1.7 -7.8,-6.9 -10.3,-12.3 -2,-4.1 -3.7,-4.9 -3,-1.4 0.3,1.2 0.7,4.2 1.1,6.6 0.5,4 0.4,4.3 -1,3.1 -2.3,-1.9 -4.2,-5.9 -5,-10.7 -1.2,-7.4 -2.8,-5.1 -2.3,3.2 0.4,5.3 0.2,7.5 -0.6,7.2 -1.9,-0.6 -4.6,-7 -4.6,-10.9 0,-2.2 -0.5,-3.8 -1.1,-3.8 -0.8,0 -1,2.3 -0.7,7.5 0.3,4.1 0.2,7.5 -0.2,7.5 -1.7,0 -4.1,-5.4 -4.7,-10.1 -0.3,-2.7 -1,-5.2 -1.6,-5.6 -0.7,-0.4 -0.8,2.2 -0.4,7.8 l 0.6,8.4 -2.4,-2.8 c -1.3,-1.5 -2.9,-4.5 -3.5,-6.7 -2.1,-7.7 -4,-3.8 -2.1,4.3 0.7,2.7 0.6,3.7 -0.3,3.7 -1.6,0 -5.6,-7.1 -5.6,-9.9 0,-1.3 -0.6,-2.1 -1.6,-2.1 -1.3,0 -1.5,0.7 -1.1,2.8 1.8,9 1.9,10.2 0.9,10.2 -1.6,0 -5.9,-7.9 -6.7,-12.3 -0.9,-4.6 -1.7,-5.2 -3.9,-2.8 -1.4,1.5 -1.5,2.7 -0.8,7.2 0.5,3 1.3,6.2 1.7,7.2 0.4,1 0.3,1.7 -0.4,1.7 -1.7,0 -5.9,-8.1 -7.1,-13.7 -1.3,-5.9 -2.6,-6.8 -5.9,-4.2 -2.2,1.8 -2.3,2.5 -1.8,8.2 0.3,3.4 0.8,7 1.2,8 0.4,0.9 0.3,1.7 -0.3,1.7 -1.5,0 -4.9,-7.7 -6.2,-14.2 -1.4,-7.1 -3.1,-8.7 -6.1,-5.9 -2,1.8 -2.1,2.5 -1.4,10.8 0.6,7.8 0.6,8.6 -0.8,7.4 -1.9,-1.5 -4.4,-8.9 -5.3,-15.4 -0.4,-2.6 -1,-5 -1.4,-5.2 -0.4,-0.2 -2,0.1 -3.5,0.8 l -2.7,1.2 0.6,10.8 c 0.3,5.9 0.2,10.7 -0.3,10.7 -1.7,0 -5.1,-9.1 -6.6,-17.7 -1.9,-10.7 -3.1,-12.4 -6.6,-8.7 -2.3,2.4 -2.4,3.2 -2.3,14 0,6.3 -0.3,11.4 -0.7,11.4 -1.7,0 -5.1,-12 -5.6,-19.8 -0.3,-4.5 -1.2,-9 -1.9,-9.9 -1.2,-1.7 -1.3,-1.7 -3.2,0 -1.6,1.4 -2,2.8 -1.7,6 0.2,2.3 0.6,9.2 1,15.2 0.5,10.1 0.4,10.8 -1,9 -2.4,-3 -4.5,-11 -5.7,-22.2 -0.7,-5.7 -1.5,-10.3 -1.8,-10.3 -0.3,0 -1.4,0.7 -2.4,1.5 -1.8,1.3 -1.8,2.4 -1.2,12.7 0.4,6.2 0.9,13 1.3,15.1 1.4,8.7 -4.4,1 -6.5,-8.8 -0.6,-2.7 -1.7,-9.4 -2.3,-14.7 -0.6,-5.4 -1.3,-9.8 -1.6,-9.8 -0.2,0 -1.6,0.6 -3.2,1.4 l -2.7,1.5 0.4,10.1 c 0.2,5.6 0.9,12.4 1.6,15.1 1.7,6.4 0.1,6.3 -2.9,-0.3 -3,-6.6 -5.2,-15 -6.1,-23.1 -0.8,-7.9 -1.6,-8.8 -5.5,-7.4 -2.9,1.2 -3,1.3 -2.4,6.7 1.8,15.7 3.7,25.5 6,31.1 1.4,3.4 2.5,7.1 2.5,8.1 0,1 0.6,1.8 1.4,1.8 1,0 1.2,-0.9 0.5,-4.2 -1.9,-10.1 -0.8,-10.2 4.9,-0.3 2.3,4.1 4.7,7.5 5.2,7.5 0.6,0 1,-1.5 1,-3.2 0,-4.1 1,-7.8 2,-7.8 0.4,0 1.3,2 2,4.5 1.3,4.6 3,6.9 3,4.1 0,-2.6 1.5,-1.8 3.3,1.7 1.5,3.1 1.6,3.1 1.7,0.7 0,-1.4 0.4,-3.1 0.9,-3.9 0.7,-1.1 1.3,-0.6 2.5,2.2 1.5,3.8 3.2,5.2 2.1,1.8 -0.3,-1 -0.1,-2.9 0.3,-4.2 0.9,-2.4 0.9,-2.4 2.6,0.9 2.1,4.1 3.4,4.1 3.8,0 l 0.3,-3.3 1.9,3.5 2,3.5 0.7,-3.3 c 0.9,-4.3 1.6,-4.9 2.4,-2.2 0.6,2 0.8,2 2,0.4 1.2,-1.7 1.3,-1.6 1.9,0.4 0.5,1.6 1.5,2.2 3.7,2.2 2.6,0 2.9,0.3 2.3,2.4 -0.4,1.6 -0.1,2.5 1.1,3 1.4,0.5 1.4,0.8 -0.4,2.7 -1.1,1.2 -1.8,2.6 -1.5,3.1 0.3,0.4 -0.5,1.2 -1.8,1.7 -1.3,0.6 -1.7,1 -1,1 1.8,0.1 1.5,1.9 -0.5,2.3 -1,0.2 -3.1,0.1 -4.6,-0.3 -2.4,-0.7 -2.7,-0.6 -1.7,0.6 0.7,0.8 2,1.7 3.1,2 3.7,1.2 2,2.8 -2.3,2.2 l -4.3,-0.5 3.5,2.9 3.4,2.9 h -2.9 c -1.7,0 -4.3,-0.7 -6,-1.5 -2.5,-1.2 -2.1,-0.7 1.8,3 5.7,5.3 4.1,6.1 -3.9,2 -2.7,-1.4 -5,-2.5 -5.2,-2.5 -0.2,0 1.8,2.7 4.3,6 2.7,3.5 4,6 3.3,6 -2.5,0 -10.3,-5.6 -14.2,-10.1 l -3.8,-4.4 2.5,5.5 c 1.3,3.1 4.1,8 6.2,10.8 2.1,2.9 3.5,5.5 3.2,5.9 -2,2 -15.2,-10.7 -22.5,-21.7 -4,-6 -7,-9.5 -15.4,-17.9 -2.1,-2.1 -3.8,-4.6 -3.8,-5.5 0,-0.9 -0.9,-4.5 -2.1,-7.9 -1.6,-4.7 -2.3,-10.3 -3,-23.1 -0.9,-18.3 -1.3,-20.8 -3.3,-20 -1,0.4 -1.2,3.3 -0.8,12.8 0.3,9.5 0.1,14.2 -1.3,20.2 -2.3,10.4 -6.2,20.8 -8.6,23 -2.4,2.1 -2.4,1.8 0.1,-9.2 1.3,-5.5 2.3,-14.3 2.7,-23.4 0.5,-13.3 0.3,-15 -1.7,-20.2 -1.8,-5 -2.4,-5.7 -3.9,-4.8 -1.6,0.8 -1.7,1.6 -0.8,7.7 1.4,10.9 0.3,29.6 -2.3,37.8 -2.8,8.9 -7.8,19.5 -9.2,19.5 -1.1,0 -1,-1 2.2,-12 3.1,-10.7 4,-37.6 1.6,-47 -1.9,-7.2 -2.5,-8.3 -4.4,-7.1 -1,0.6 -1,2.5 0.3,9.6 2.1,12.3 1.9,26.2 -0.5,36.3 -2.9,11.9 -9.6,25.9 -11.5,24 -0.2,-0.2 0.7,-4.1 2,-8.8 1.4,-4.6 2.3,-8.5 2.1,-8.7 -0.2,-0.2 -1.5,0.1 -2.9,0.8 -2.7,1.2 -4.2,4.5 -2.3,5.3 0.7,0.3 0.5,0.9 -0.6,1.6 -0.9,0.5 -2.8,3.4 -4.1,6.3 -4.4,9.4 -10.1,13.4 -6.7,4.7 2.6,-6.6 2.5,-7.2 -0.7,-6.8 -1.9,0.2 -2.8,0.8 -2.7,2 0.1,1 -1.9,4 -4.4,6.8 -4.4,4.9 -7,6.5 -5.8,3.5 0.3,-0.8 0.9,-2.2 1.2,-3 1.1,-2.7 -3.6,-1.7 -7.3,1.5 -4.1,3.7 -5.5,3.8 -4.7,0.5 0.5,-2.2 0.3,-2.5 -2.2,-2.5 -1.9,0 -3.6,1 -5.5,3.3 -3,3.6 -4.5,3.3 -3,-0.6 0.8,-2.1 0.7,-2.6 -1.2,-3.1 -3.4,-0.9 -7.7,-0.7 -7.7,0.3 0,1.3 -6.9,6.6 -7.6,5.9 -0.3,-0.3 0.4,-2.1 1.6,-4.1 l 2.1,-3.5 -2.8,-0.5 c -2.3,-0.5 -3.4,0.1 -6,2.9 -2.9,3.1 -5.3,4.4 -5.3,2.8 0,-0.4 0.8,-2.8 1.7,-5.5 1.9,-5.3 1.3,-7.1 -1.5,-4.6 -1,1 -2.3,1.7 -2.8,1.7 -0.5,0 -1.7,0.9 -2.7,2 -2,2.4 -6.1,2.6 -11.2,0.4 -4.1,-1.7 -4.1,-1.7 -6.5,2.3 l -1.6,2.7 7.6,3.2 c 4.2,1.7 9.3,3.4 11.4,3.7 2.1,0.3 4.6,1.3 5.6,2.2 1.2,1.1 5.1,1.9 12.6,2.5 14.7,1.2 31.4,6.5 31.4,10.1 0,0.5 -5.3,0.9 -12.2,0.9 -13.8,0.1 -13.9,0.8 -0.6,4.1 4.6,1.1 9.4,2.8 10.8,3.7 l 2.5,1.6 -2.7,0.7 c -5.9,1.5 -14.7,1.7 -21.7,0.4 z m 16.4,-1.4 3,-0.7 -3.5,-1.1 c -1.9,-0.6 -5.1,-1.5 -7,-1.8 -1.9,-0.4 -6.9,-2.2 -11,-4 -4.2,-1.9 -9.6,-3.7 -12,-4 l -4.5,-0.6 4.3,2.3 c 2.4,1.3 4,2.6 3.7,2.9 -0.5,0.6 3.2,1.9 12.5,4.5 3.9,1.1 4.1,1.3 1.5,1.3 -1.6,0.1 -7.5,-1.5 -13,-3.4 -5.5,-1.8 -10.1,-3.3 -10.2,-3.1 -0.2,0.2 2.3,1.5 5.5,2.8 5,2.2 8.3,3.1 18.7,5.2 3.1,0.6 8.7,0.4 12,-0.3 z M 167.7,339 c -1.4,-1.1 -2.9,-2 -3.4,-2 -1.1,0.1 3.7,4 4.9,4 0.6,0 -0.1,-0.9 -1.5,-2 z m 45,-0.6 c -3.5,-1.9 -17.2,-5.4 -20.6,-5.3 -1.6,0.1 -0.6,0.6 2.9,1.5 l 5.5,1.3 -6,-0.4 c -7.9,-0.5 -5.5,0.4 5.3,2.1 l 8.7,1.3 -8.5,-0.3 c -4.7,-0.2 -10.7,-1.2 -13.3,-2.1 -2.7,-0.9 -5.1,-1.4 -5.4,-1.2 -0.2,0.3 2.2,1.4 5.4,2.5 4.5,1.6 8.4,2.1 17.3,2.1 10.8,0 11.3,-0.1 8.7,-1.5 z M 171,337.1 c 0,-1.1 -0.9,-2.1 -2.3,-2.5 -1.2,-0.3 -6,-3.1 -10.7,-6.2 -4.6,-3.1 -9.9,-6.3 -11.8,-7.1 -6.1,-2.5 -5.7,-0.8 0.6,3.1 3.4,2 6.9,4.7 7.9,6 2.4,3 6.7,5.7 9.6,6 1.3,0.2 3.2,0.8 4.3,1.4 2.5,1.5 2.4,1.5 2.4,-0.7 z m 160.2,-1.8 c -1.1,-1.6 -3.8,-6.7 -6,-11.5 -2.2,-4.9 -4.4,-8.8 -4.7,-8.8 -0.4,0 -0.5,0.7 -0.1,1.5 1.1,3.1 -1.1,1.3 -3.3,-2.5 -2.5,-4.5 -3.2,-5 -2.3,-1.8 0.5,2 0.2,2 -3.3,-0.9 -4.8,-4 -7.5,-8.1 -7.5,-11.5 0,-3 0.1,-3.1 2.4,-2.2 0.8,0.3 1.2,1.2 0.9,2 -0.6,1.5 5.2,8.7 7.4,9 1.9,0.3 1.6,-0.6 -1.5,-5 -3.2,-4.7 -7.6,-8.1 -9.1,-7.2 -3.3,2.1 0.2,10.5 6.3,15.1 2,1.5 3.6,3.3 3.6,4 0,2.7 16,22.5 18.2,22.5 0.5,0 0.1,-1.2 -1,-2.7 z M 177,336 c -2,-1.3 -4,-1.3 -4,0 0,0.6 1.2,1 2.8,1 2.1,0 2.4,-0.2 1.2,-1 z m -6,-3.9 -2.5,-0.7 2.4,-0.8 c 1.8,-0.6 2.1,-1 1,-1.7 -0.8,-0.5 -2.5,-0.9 -3.9,-0.9 -1.4,0 -4.9,-1.1 -7.9,-2.5 -3,-1.4 -5.5,-2.4 -5.7,-2.3 -0.1,0.2 2.9,2.5 6.8,5.1 4.3,2.9 8,4.7 9.7,4.6 l 2.6,-0.1 z m 162.6,-9.5 c -3.1,-4.2 -5.8,-7.6 -6.1,-7.6 -1.1,0 0.5,5.2 2.5,8 2.2,3 8.2,8.2 8.8,7.5 0.2,-0.2 -2.1,-3.8 -5.2,-7.9 z m 3.9,-4.1 c -2.6,-3 -4.9,-5.5 -5.1,-5.5 -0.1,0 -0.2,1.1 -0.1,2.5 0.1,1.8 1.6,3.4 4.7,5.5 2.5,1.6 4.6,3 4.8,3 0.2,0 -1.8,-2.5 -4.3,-5.5 z m -201,1 c 3.5,-2.9 1.5,-3.4 -2.2,-0.6 -1.3,1.1 -3.1,1.7 -4,1.4 -1.1,-0.4 -1.4,-0.2 -0.9,0.5 1.1,1.9 3.8,1.3 7.1,-1.3 z M 513,316.4 c -8.7,-4.6 -13.1,-7.2 -23.2,-13.8 -3.2,-2 -5.8,-3.4 -5.8,-3.1 0,1 19.5,13.3 27.6,17.5 10.8,5.5 11.9,5 1.4,-0.6 z M 343.8,317 c -1.9,-2.7 -5.9,-6 -7.2,-6 -0.2,0 -0.2,0.9 0.1,2 0.4,1.6 7.4,6.9 9.1,7 0.1,0 -0.7,-1.4 -2,-3 z m 178.8,1.7 c -9.5,-6 -17.5,-13.4 -10.4,-9.6 2.9,1.5 14.1,5 14.6,4.5 0.2,-0.2 -0.7,-0.7 -2,-1.1 -3,-0.9 -21.8,-10.3 -28.6,-14.4 -2.9,-1.7 -5.5,-3.1 -5.7,-3.1 -0.3,0 -0.5,0.9 -0.5,2 0,3.8 9.4,10.8 25,18.7 8.1,4.1 11.6,5.5 7.6,3 z m -389.7,-3.3 c 7.6,-2.2 5.7,-2.7 -2.9,-0.9 -7.4,1.5 -10.3,1.3 -20.5,-2 -1.1,-0.3 -0.6,0.2 1,1.1 4.1,2.4 11.5,4.3 14.5,3.7 1.4,-0.3 4.9,-1.1 7.9,-1.9 z m 14.5,0.4 1.7,-2.3 -0.7,2.4 c -0.7,2.7 1,2.1 2.6,-1 0.9,-1.6 0.7,-1.9 -1.2,-1.9 -1.3,0 -3.1,1.2 -4.1,2.5 -1,1.4 -1.4,2.5 -0.9,2.5 0.5,0 1.7,-1 2.6,-2.2 z m -40,-0.3 c -1,-0.8 -2.5,-1.5 -3.2,-1.5 -0.7,0 -4.1,-1.4 -7.5,-3.2 -5.9,-3 -7,-3.2 -21.2,-3.8 -8.2,-0.3 -16.3,-0.3 -18,0.2 -1.6,0.4 -5.5,0.8 -8.6,0.8 -4.7,0 -5.8,-0.3 -6.2,-1.9 -0.4,-1.5 0.7,-2.4 6.2,-4.5 6.1,-2.4 16.2,-4.9 16.9,-4.1 0.2,0.2 -1.3,0.8 -3.2,1.5 -2,0.6 -3.4,1.6 -3.1,2.1 0.7,1.1 11.5,1.1 17,0 l 4,-0.9 -3.5,-0.3 c -2.2,-0.1 -1,-0.5 3.4,-0.8 l 6.8,-0.6 -2,-2.5 c -1.8,-2.3 -2.6,-2.4 -9.6,-2.2 -4.3,0.1 -9.6,0.6 -11.9,1.2 -2.3,0.5 -4.3,0.7 -4.5,0.5 -0.2,-0.2 2.2,-1.8 5.4,-3.5 3.3,-1.7 5,-2.8 3.9,-2.4 -1.1,0.3 -5.8,1.9 -10.5,3.5 -10.7,3.7 -12.9,3.2 -2.6,-0.5 12.7,-4.7 8,-3.9 -8.9,1.5 -8.7,2.7 -16.5,4.8 -17.3,4.7 -0.7,-0.2 5.6,-5 14.2,-10.7 15.6,-10.4 20.2,-14 16.1,-12.9 -1.1,0.3 -2.8,0.9 -3.7,1.3 -1.5,0.6 -1.6,0.3 -0.8,-2.4 1,-3.8 0.1,-11.6 -1,-8.5 -0.4,1 -1.1,4.3 -1.5,7.3 -0.9,6.6 -1.9,7.6 -17.1,17.4 -6.2,3.9 -11.5,7.8 -11.8,8.5 -0.3,0.7 0.4,1.7 1.7,2.2 l 2.2,0.9 h -2.2 c -5,0.2 -0.8,4.1 4.3,4.1 1.5,0 3.2,0.7 3.8,1.5 1.8,2.5 13.7,3.7 22.9,2.4 4.7,-0.7 13.5,-1 21.1,-0.7 11.3,0.5 13.6,0.9 16.9,2.8 4.5,2.7 10.4,4.9 13.1,5 2,0 2,0 0,-1.5 z m 73.6,-2.8 c 0,-1.6 -1.8,0.3 -2.3,2.5 -0.6,2.2 -0.5,2.2 0.8,0.4 0.8,-1.1 1.5,-2.4 1.5,-2.9 z m 40.9,1.9 c -0.2,-0.2 -5.3,-0.6 -11.4,-0.8 -6,-0.3 -9.4,-0.2 -7.5,0.2 3.6,0.8 19.7,1.3 18.9,0.6 z m 123.1,-3 c -1.9,-1.9 -3.6,-3.3 -3.8,-3.2 -0.8,0.8 1.4,3.8 3.7,5.1 3.8,2.1 3.9,1.9 0.1,-1.9 z m -175.9,-0.8 c 0.8,-3.2 0.4,-3.3 -3.1,-1.2 -2.5,1.5 -2.5,1.5 -0.1,0.8 1.7,-0.4 2.2,-0.3 1.9,0.7 -0.4,1 -2,1.3 -4.9,1.2 -3.2,-0.2 -4,0 -2.9,0.7 0.8,0.6 3,0.9 4.9,0.8 2.8,-0.3 3.6,-0.8 4.2,-3 z m 19.3,-3 c 0.3,-2.9 0.9,-6.2 1.2,-7.3 0.7,-2.9 -4,-7.5 -7.7,-7.5 -3.8,0 -6.7,5 -5,8.7 0.6,1.3 1.1,3.2 1.1,4.2 0,1.8 6.3,6.9 8.6,7 0.6,0.1 1.4,-2.3 1.8,-5.1 z m 16,3.3 c 0.3,-0.5 -1,-1.1 -2.9,-1.3 -4.1,-0.5 -4.8,0.9 -0.7,1.5 1.5,0.2 2.8,0.5 2.9,0.6 0.1,0 0.4,-0.3 0.7,-0.8 z M 216,311 c 0,-0.5 -1.3,-1 -3,-1 -1.6,0 -3,0.5 -3,1 0,0.6 1.4,1 3,1 1.7,0 3,-0.4 3,-1 z m 11,-0.5 c 0,-0.8 -0.9,-1.5 -2,-1.5 -1.1,0 -2,0.7 -2,1.5 0,0.8 0.9,1.5 2,1.5 1.1,0 2,-0.7 2,-1.5 z m 16,-3.2 c 0,-2.2 -0.8,-1.4 -1.9,2 -1,2.9 -0.9,3 0.4,1.3 0.8,-1.1 1.5,-2.6 1.5,-3.3 z m -91.4,2.9 c 0.7,-0.4 2.7,-3.2 4.5,-6.2 1.9,-3.1 6.7,-8.5 10.9,-12.1 4.1,-3.6 8.4,-8.1 9.5,-10.1 l 1.9,-3.7 -2.3,-6.8 c -1.2,-3.7 -2.7,-11.3 -3.3,-16.8 -1.2,-11.9 -2.5,-15.3 -11.6,-28.8 -3.8,-5.6 -8.1,-12.4 -9.7,-15.2 -1.5,-2.7 -4,-6 -5.4,-7.3 -2.3,-2.1 -2.4,-2.3 -0.5,-1.8 1.8,0.6 2.4,-0.1 4.3,-4.5 1.1,-2.8 2.1,-5.5 2.1,-5.9 0,-0.7 -13.1,2.6 -23.9,6.1 -3.6,1.1 -12,4.9 -18.6,8.4 -6.6,3.4 -13.7,6.7 -15.7,7.4 -2,0.7 -6.6,3.5 -10.3,6.2 -3.6,2.8 -10.3,6.8 -14.9,8.9 -4.6,2.1 -10.2,5.4 -12.4,7.4 -2.2,2 -6.1,4.4 -8.6,5.2 -2.5,0.9 -4.8,1.9 -5.1,2.4 -0.3,0.4 2.7,1.6 6.5,2.6 3.8,1 6.8,2 6.5,2.2 -0.2,0.3 0.7,1.9 2,3.7 3.7,4.8 3,5.4 -1,0.8 -2.9,-3.5 -4.5,-4.3 -10.4,-5.8 -7.3,-1.8 -10,-1.3 -11.9,2.1 -1.7,3.1 4,18.9 9.4,26 1.3,1.7 2.4,3.6 2.4,4.2 0,1.9 1.8,1.4 3,-0.7 1.5,-2.9 1.2,-3.8 -0.6,-1.5 -1.5,1.8 -1.5,1.8 -0.9,-0.4 0.4,-1.3 0.2,-2.8 -0.3,-3.5 -0.6,-0.7 -2,-3.5 -3.2,-6.2 -1.8,-4.4 -2.1,-3.2 -0.4,2.2 0.3,1 -0.1,0.7 -1,-0.7 -0.8,-1.4 -2.2,-5.3 -3,-8.7 -0.9,-3.4 -1.9,-7 -2.3,-7.9 -0.5,-1.4 -0.2,-1.6 1.8,-1.1 5.6,1.3 12,4 11,4.7 -0.7,0.4 0.1,1.7 2,3.6 1.7,1.6 6.2,7 9.9,11.9 3.8,5 9.8,11.9 13.4,15.4 7.2,7.2 6.8,7.3 8,-3.1 0.6,-5.1 -0.5,-7 -7.9,-14.1 -4.3,-4.2 -3.5,-4 3.3,0.5 5.1,3.5 12.1,6.7 14.5,6.8 2.8,0 2.1,-3.7 -1,-5.4 l -2.8,-1.4 H 93 c 4.6,0 18.6,-6.7 23.2,-11.1 2.6,-2.5 4,-4.9 4.9,-8.6 1.3,-5.6 3,-8 7.4,-10.2 2.8,-1.4 2.8,-1.3 -0.7,1.9 -3,2.6 -4,4.4 -4.9,8.8 -1.2,6.1 -4,9.2 -13.9,15.7 -6.9,4.5 -8,5.8 -8,10.1 0,4.3 3.7,9.4 7.9,11.2 1.7,0.7 3.1,1.6 3.1,2.1 0,1.3 -6.2,-1.5 -14.7,-6.6 -4,-2.5 -8,-4.5 -8.8,-4.5 -3.8,0 -4.9,12.6 -1.5,17 1.1,1.4 2,3.4 2,4.5 0,1.2 1.8,3.8 3.9,5.9 3.8,3.7 4.2,3.8 8.8,3.2 6.2,-0.8 22.3,-4.4 20.1,-4.5 -2.6,-0.1 -2.2,-2.1 0.4,-2.1 3.7,0 18.2,-4.8 21.9,-7.3 2.8,-1.9 8.6,-9.9 10.3,-14.1 0.2,-0.6 1,-0.3 1.9,0.9 3.7,4.8 11.6,-3.5 11.8,-12.5 0,-3.4 0.2,-4 0.9,-2.5 1.3,3.1 1.2,-0.3 -0.3,-6 -0.7,-3 -1,-7.6 -0.7,-11.5 l 0.6,-6.5 1.2,5.3 c 0.6,2.9 1.2,7.4 1.2,10 0,2.6 1.2,8.2 2.6,12.4 2.4,7.2 2.4,7.8 0.9,10.7 -0.8,1.7 -5,6 -9.3,9.7 -4.6,3.9 -8.8,8.6 -10.6,11.7 -1.7,2.9 -3.5,5.6 -4,6 -0.6,0.5 -6.5,0.6 -13.1,0.4 -6.6,-0.2 -11.5,-0.2 -10.9,0 5.5,1.9 22.8,3 25,1.5 z m 200.4,0.3 c 0,-0.7 -3.8,-2.6 -6.1,-3 -3.5,-0.7 -2,1.1 1.9,2.2 2,0.6 3.8,1.1 4,1.2 0.1,0 0.2,-0.1 0.2,-0.4 z m 171,-1 c -1.5,-0.9 -1.9,-1.5 -1,-1.5 0.8,0 -2.2,-2.1 -6.7,-4.6 -10.3,-5.6 -11.3,-7.1 -2.8,-3.9 9.5,3.6 9.2,3.1 -1,-2 -4.9,-2.5 -8.1,-4.3 -7,-4 1.1,0.2 4.2,0.9 6.8,1.6 8.5,2.1 6,0.4 -6.5,-4.4 -12.1,-4.6 -14.3,-4.8 -13.6,-1.1 0.3,1.9 4.5,4.6 20.3,13 5.5,3 9.6,5.4 9.1,5.4 -0.5,0 -7,-3.2 -14.5,-7 -7.5,-3.9 -12.5,-6.2 -11.1,-5.1 3,2.4 27.8,15.1 29.4,15.1 0.6,-0.1 0,-0.7 -1.4,-1.5 z m -348.2,-2 c 1.1,-2.5 0.7,-5.5 -0.8,-5.5 -0.4,0 -1,1.1 -1.2,2.5 -0.3,1.3 -0.1,2.2 0.3,1.9 1.3,-0.8 1.1,1 -0.3,2.4 -0.7,0.7 -0.8,1.2 -0.2,1.2 0.6,0 1.6,-1.1 2.2,-2.5 z m 61.2,-1.2 c 1.9,-0.3 4.2,-1 5,-1.5 1,-0.6 0.6,-0.8 -1.5,-0.4 -1.6,0.3 -8.7,0.9 -15.7,1.2 -7.1,0.4 -12.8,1.1 -12.8,1.7 0,0.9 17.5,0.2 25,-1 z M 354,306 c -0.8,-0.5 -2.4,-1 -3.5,-1 -1.7,0 -1.7,0.2 -0.5,1 0.8,0.5 2.4,1 3.5,1 1.7,0 1.7,-0.2 0.5,-1 z m -186.7,-1.2 3.7,0.2 v -4.4 c 0,-5.1 -2,-7.6 -4.5,-5.6 -0.9,0.7 -1.3,1.5 -1,1.8 0.3,0.3 0,1.1 -0.6,1.9 -0.9,1 -0.8,1.3 0.4,1.3 0.9,0 1.9,-0.4 2.2,-1 1.1,-1.8 2.5,-1 2.5,1.5 0,2.1 -0.5,2.5 -3.2,2.5 -1.8,0.1 -4.4,0.7 -5.8,1.6 l -2.5,1.5 2.5,-0.8 c 1.4,-0.4 4.2,-0.6 6.3,-0.5 z m 149.4,-0.9 c -0.5,-2 -0.5,-2 1.4,-0.3 3.2,2.9 2.1,0.8 -2.1,-4.1 -2.2,-2.6 -4.7,-6 -5.5,-7.6 -1.9,-3.7 -2.7,-3.7 -1.9,-0.1 0.6,2.4 7.3,14 8.3,14.2 0.2,0 0.1,-0.9 -0.2,-2.1 z m 13.2,-0.9 c -1.3,-1.6 -2.4,-2.8 -2.7,-2.6 -0.5,0.6 3.1,5.5 4.1,5.6 0.4,0 -0.2,-1.3 -1.4,-3 z M 218,302.4 c 0,-1.6 -0.5,-1.6 -3.7,-0.8 -3.5,1 -2.9,3.1 0.7,2.6 1.7,-0.2 3,-1 3,-1.8 z m 106.4,-0.6 c -0.9,-1.7 -2.2,-4.7 -2.9,-6.7 l -1.4,-3.6 v 5 c 0,2.8 0.4,5.7 0.9,6.5 0.8,1.3 1,1.3 1,0 0,-1.2 0.3,-1.1 1.7,0.3 2.4,2.4 2.6,2.1 0.7,-1.5 z m 10.4,0.3 c -1.3,-1.5 -2.5,-2.7 -2.7,-2.5 -0.7,0.6 2.9,5.4 4,5.4 0.6,0 0,-1.3 -1.3,-2.9 z m -130,1.2 c -1,-0.2 -2.6,-0.2 -3.5,0 -1,0.3 -0.2,0.5 1.7,0.5 1.9,0 2.7,-0.2 1.8,-0.5 z m 18.6,-0.9 c 0.4,-1.1 0.1,-1.4 -1.1,-1.2 -0.9,0.2 -1.8,0.9 -2.1,1.6 -0.6,1.8 2.5,1.5 3.2,-0.4 z m 5.9,0.2 c 0.7,-1.9 0,-2.5 -2.4,-1.9 -1,0.3 -1.9,1.2 -1.9,1.9 0,1.8 3.6,1.8 4.3,0 z m 30.1,-14 c 1.9,-7.6 2,-10.9 0.4,-10.3 -0.7,0.2 -1.4,2.1 -1.5,4.3 -0.3,5 -1.8,13.1 -3.2,16.7 -0.6,1.6 -1.1,3.4 -1.1,4 0.1,1.9 3.8,-8 5.4,-14.7 z M 234,301.4 c 0,-1.7 -2.2,-1.4 -2.8,0.4 -0.2,0.7 0.3,1.2 1.2,1.2 0.9,0 1.6,-0.7 1.6,-1.6 z m 7.4,0.1 c 0.4,-1.1 -0.2,-1.5 -2.4,-1.5 -2,0 -3,0.5 -3,1.5 0,0.9 0.9,1.5 2.4,1.5 1.3,0 2.6,-0.7 3,-1.5 z m 4.4,-1.3 c 0.6,-1.8 -1.5,-1.4 -2.2,0.4 -0.4,1 -0.1,1.4 0.6,1.2 0.6,-0.2 1.4,-1 1.6,-1.6 z m 54.1,-2.3 c -0.9,-0.5 -1.5,-0.4 -1.8,0.2 -0.2,0.6 0.3,1.5 1,2 0.9,0.5 1.5,0.4 1.8,-0.2 0.2,-0.6 -0.3,-1.5 -1,-2 z m -99.6,1.4 c -1.3,-0.2 -3.3,-0.2 -4.5,0 -1.3,0.2 -0.3,0.4 2.2,0.4 2.5,0 3.5,-0.2 2.3,-0.4 z m 28,-0.8 c 9.9,-0.7 18.2,-1.7 18.5,-2.1 0.4,-0.4 -1.3,-0.4 -3.8,0 -2.5,0.3 -12.6,0.9 -22.5,1.3 -10.7,0.4 -16.6,1 -14.5,1.4 1.9,0.3 3.7,0.7 4,0.7 0.3,0.1 8.5,-0.5 18.3,-1.3 z m 41.2,-9.5 c 2.6,-9.9 3.5,-26.2 1.5,-27.5 -0.5,-0.3 -1,-1.7 -1,-3 0,-2.4 -3.9,-15.9 -4.5,-15.3 -0.1,0.1 0.5,3.5 1.5,7.3 2.3,8.7 2.5,27.6 0.5,39 -2.4,13.4 -1.7,13.2 2,-0.5 z m -62.5,7 c 0,-1.2 -0.8,-1.2 -3.5,0 -1.8,0.8 -1.7,0.9 0.8,0.9 1.5,0.1 2.7,-0.3 2.7,-0.9 z m -9.3,-2 c 4.9,-1.2 7.7,-1.5 27.8,-3 29.5,-2.2 31.9,-3.2 4.5,-1.9 -18.2,0.9 -38.3,4 -39.7,6.1 -0.3,0.6 0.2,0.8 1.3,0.5 1.1,-0.3 3.8,-1.1 6.1,-1.7 z m 22.3,0.5 c 0,-1.6 -1.7,-1.9 -4.4,-0.9 -2.6,1 -1.8,2.4 1.4,2.4 2,0 3,-0.5 3,-1.5 z m 5,0 c 0,-0.8 -0.7,-1.5 -1.5,-1.5 -0.8,0 -1.5,0.7 -1.5,1.5 0,0.8 0.7,1.5 1.5,1.5 0.8,0 1.5,-0.7 1.5,-1.5 z m 6,-0.5 c 0,-1.3 -0.7,-2 -2,-2 -1.3,0 -2,0.7 -2,2 0,1.3 0.7,2 2,2 1.3,0 2,-0.7 2,-2 z m 71.8,-0.3 c 0.2,-1 -0.6,-4.1 -1.8,-6.9 -2.9,-6.7 -4.9,-18 -5.7,-31.1 l -0.6,-10.9 2.7,-2.1 c 3.9,-3.2 5,-8 2.5,-11.1 -2.5,-3.2 -2.4,-4.5 1.1,-12.3 1.7,-3.6 2.8,-6.8 2.6,-7 -0.6,-0.6 -5.1,7.3 -7.1,12.5 -1.4,3.3 -2.2,4.2 -4.1,4.2 -4.2,0 -2.6,1.7 2.4,2.5 3.7,0.6 4.2,0.9 2.4,1.4 -1.3,0.3 -2.3,1.1 -2.3,1.6 0,0.6 -1,2 -2.1,3.2 -1.8,2 -1.9,2.6 -0.8,5.2 0.6,1.6 1.2,6.3 1.1,10.3 0,4 -0.1,11.1 -0.1,15.8 -0.1,10.3 1.5,19.7 4.1,24 2.1,3.4 5.1,3.8 5.7,0.7 z m 220.1,1.8 c -0.6,-0.5 -27.3,-10.9 -30.9,-12 -6.3,-1.9 0,1 14.1,6.5 14.2,5.5 18,6.7 16.8,5.5 z M 175.8,293 c 0.8,0 2.8,-1 4.4,-2.2 3.1,-2.1 3.1,-2.1 2.5,-9.7 -0.7,-8.6 -2.7,-18.1 -3.8,-18.1 -1.8,0 -1.9,4.3 -0.3,9.4 1.7,5.3 1.7,5.7 0,9.5 -1,2.1 -3.3,5.4 -5.2,7.2 -2.6,2.5 -3.1,3.5 -2.2,4.6 0.8,1 1.4,1.1 2.2,0.3 0.5,-0.5 1.6,-1 2.4,-1 z m 60.2,0.5 c 0,-0.8 -0.7,-1.5 -1.5,-1.5 -0.8,0 -1.5,0.7 -1.5,1.5 0,0.8 0.7,1.5 1.5,1.5 0.8,0 1.5,-0.7 1.5,-1.5 z m 7,0 c 0,-0.9 -0.9,-1.5 -2.5,-1.5 -1.6,0 -2.5,0.6 -2.5,1.5 0,0.9 0.9,1.5 2.5,1.5 1.6,0 2.5,-0.6 2.5,-1.5 z m 243.4,-0.7 c -1,-1.2 -3.2,-3.4 -4.9,-5 l -3,-2.8 3.9,1.6 c 6.3,2.5 6.4,0.3 0.1,-5.3 l -5.6,-5.1 5.8,1.4 c 3.2,0.8 6.1,1.4 6.6,1.4 1.3,0 0.8,-2.3 -1,-4.2 -1.5,-1.7 -1.5,-1.8 0.5,-1.8 2.6,0 2.8,-1.8 0.5,-3.7 -1,-0.8 -1.3,-1.2 -0.8,-0.9 0.6,0.2 1.7,0.1 2.5,-0.4 1.3,-0.8 0.8,-1 -10,-3.8 -3.4,-0.8 -3.3,-0.9 3,-1.6 9.8,-1.1 12.4,-3.1 7.3,-5.6 l -2.8,-1.2 2.3,-0.9 c 3.2,-1.2 2.5,-4.3 -1.1,-4.7 l -2.8,-0.3 2.6,-2 c 4,-3.2 3.2,-4.2 -3,-3.6 -3,0.3 -5.5,0.4 -5.5,0.2 0,-0.2 1.6,-1.3 3.5,-2.5 4.9,-3 4.7,-5.3 -0.5,-4.8 l -3.9,0.3 2.4,-2.5 c 2.6,-2.7 3.3,-5 1.5,-5 -1.8,0 -13.2,6.1 -12.6,6.7 0.3,0.3 -0.6,2 -1.9,3.7 -2.1,2.8 -7.5,13.7 -7.5,15.2 0,0.3 1.9,-2.3 4.3,-5.7 3.9,-5.8 10,-10.9 11.4,-9.6 0.3,0.4 -0.7,2 -2.1,3.8 -5.5,6.5 -8.5,14.9 -4.8,13.4 5.1,-2.2 13.2,-2.5 13.2,-0.6 0,0.3 -2.3,1.6 -5.1,2.8 -6.6,2.9 -6.5,5.6 0.4,9.2 8.2,4.2 3.4,5 -9,1.5 -2.1,-0.6 -2.2,-0.5 -1.2,2.4 0.5,1.6 2.6,4.8 4.6,7.1 1.9,2.3 3.3,4.5 3,4.8 -1.4,1.4 -10.1,-5.2 -13,-9.8 -2.7,-4.4 -4.7,-6.2 -4.7,-4.1 0,1.2 5,9.5 8.8,14.6 4.1,5.4 11.5,9.6 17.1,9.6 h 3.4 z m -238.6,-0.6 c 0.2,-0.7 -0.3,-1.2 -1.2,-1.2 -0.9,0 -1.6,0.7 -1.6,1.6 0,1.7 2.2,1.4 2.8,-0.4 z m 6.3,0.8 c 0.5,0 0.9,-1.1 0.9,-2.5 0,-2.1 -0.3,-2.3 -2.2,-1.6 -1.3,0.4 -2.5,1.8 -2.6,3.1 -0.3,1.8 0,2.1 1.3,1.6 0.9,-0.3 2.1,-0.6 2.6,-0.6 z m 28.5,-9.6 c 2.2,-8.3 2.5,-11.1 2,-17.5 -0.7,-8.4 -2.8,-16.4 -5,-19.4 -1.1,-1.5 -1,-0.4 0.4,4.3 2.4,7.8 2.6,18.8 0.5,32.6 -1.7,11.1 -1.7,11.1 -1,10.5 0.2,-0.3 1.6,-5 3.1,-10.5 z M 194,292 c 1.3,-0.9 1.3,-1 0,-1 -0.8,0 -2.2,0.5 -3,1 -1.3,0.9 -1.3,1 0,1 0.8,0 2.2,-0.5 3,-1 z m 3,-6.1 c 5.4,-1.8 12.1,-3.3 15.5,-3.4 24.8,-1.2 39.4,-2.4 41.1,-3.3 2.3,-1.4 -24.8,-0.7 -37,0.9 -9.4,1.2 -23.3,5.1 -28.4,8 -2.1,1.1 -3,1.8 -2.2,1.5 0.8,-0.3 5.8,-1.9 11,-3.7 z m 8.8,3.5 c 1.2,-0.4 2.2,-1.3 2.2,-2 0,-1.7 -0.1,-1.7 -3.4,-0.4 -1.4,0.5 -2.6,1.4 -2.6,2 0,1.1 0.6,1.2 3.8,0.4 z m 304,-1.5 c -2.1,-1.1 -3.8,-2.1 -3.8,-2.3 0,-0.2 2.8,0.4 6.3,1.5 10.1,3.1 9,2.2 -4.7,-3.6 -7,-3 -13.2,-5.2 -13.8,-4.9 -2.6,1.6 0.3,4.1 8.7,7.6 10,4 13,4.8 7.3,1.7 z m -296.8,-1 c 0,-0.5 -0.7,-0.9 -1.5,-0.9 -0.8,0 -1.5,0.7 -1.5,1.5 0,0.9 0.6,1.2 1.5,0.9 0.8,-0.4 1.5,-1 1.5,-1.5 z m 8,-0.9 c 0,-2.2 -0.3,-2.3 -3.7,-1.4 -3.4,0.9 -2.9,3.4 0.7,3.4 2.3,0 3,-0.4 3,-2 z m 5,-0.6 c 0,-0.8 -0.7,-1.4 -1.5,-1.4 -0.8,0 -1.5,0.9 -1.5,2 0,1.3 0.5,1.8 1.5,1.4 0.8,-0.4 1.5,-1.2 1.5,-2 z m 5.8,-0.2 c 0.3,-1.7 -0.2,-2.2 -1.7,-2.2 -1.6,0 -2.1,0.6 -2.1,2.6 0,3.3 3.3,3 3.8,-0.4 z m 5.2,-0.3 c 0,-1 -0.7,-1.9 -1.5,-1.9 -0.9,0 -1.5,0.9 -1.5,2.5 0,1.8 0.4,2.3 1.5,1.9 0.8,-0.4 1.5,-1.5 1.5,-2.5 z m -50.6,1.5 c 1.2,-0.5 1.6,-2.1 1.6,-6.7 0,-7.7 -2.2,-16.6 -7.1,-28.6 -3.6,-8.8 -3.7,-9.5 -2.4,-12.2 1.8,-3.4 1.9,-9.1 0.3,-10.7 -0.7,-0.7 -2.2,-1.2 -3.4,-1.2 -1.8,0 -2.2,-0.7 -2.8,-4.6 -0.3,-2.6 -0.6,-8.1 -0.7,-12.3 l -0.1,-7.6 -1.4,5.5 c -0.7,3 -1.4,8.6 -1.5,12.3 -0.1,4.2 -0.7,7.4 -1.6,8.2 -1.9,1.9 -0.2,2.6 3.7,1.5 4.1,-1.2 4.6,-0.8 2,1.5 -2.4,2.2 -2.6,3.5 -0.5,3.5 1.3,0 1.3,0.3 0.3,2 -1.1,1.6 -0.9,2.3 1.4,4.7 1.4,1.5 3.1,3.9 3.8,5.2 1.2,2.4 6,16 6,17 0,0.3 -1.8,-3.1 -4,-7.6 -2.3,-4.6 -4.5,-8.3 -4.9,-8.3 -0.5,0 0.4,2.4 2,5.4 3.8,7 6.9,19.3 6.9,27.3 0,3.4 0.2,6.3 0.4,6.3 0.2,0 1.1,-0.3 2,-0.6 z M 244,285 c 0,-1.5 -0.7,-2 -2.5,-2 -1.8,0 -2.5,0.5 -2.5,2 0,1.5 0.7,2 2.5,2 1.8,0 2.5,-0.5 2.5,-2 z m 270.8,-0.8 c -3.1,-1.5 -5.7,-3.1 -5.7,-3.7 0,-0.5 -0.5,-1.1 -1.3,-1.3 -0.9,-0.2 -0.8,0 0.2,0.7 2.3,1.6 0.6,1.3 -5.1,-0.9 -9.6,-3.8 -6,-1.4 4.8,3.3 11.6,5 16.5,6.2 7.1,1.9 z M 249,283.9 c 0,-2.4 -2.3,-2.1 -2.8,0.4 -0.2,1 0.3,1.7 1.2,1.7 1,0 1.6,-0.9 1.6,-2.1 z m 7,-1.5 c 0,-2 -0.3,-2.2 -2.2,-1.5 -1.3,0.4 -2.4,1.7 -2.6,2.8 -0.3,1.7 0.1,2 2.2,1.6 1.9,-0.4 2.6,-1.2 2.6,-2.9 z m 206.9,-0.7 c -1.6,-2.4 -3.6,-6.1 -4.4,-8.2 -1.3,-3.9 -1.2,-4 1.1,-5.3 3,-1.6 3.1,-2.2 0.2,-1.5 l -2.3,0.5 2.3,-1.6 c 2.6,-2 2.9,-5.1 0.6,-6.4 -1.4,-0.8 -1.3,-1.7 1.4,-8 3.8,-9.1 3.1,-9.4 -0.9,-0.4 -1.7,3.7 -3.5,7.5 -4,8.5 -0.7,1.4 -0.5,1.7 1.2,1.7 1.5,0 1.9,0.4 1.5,1.6 -0.3,0.9 -0.6,1.8 -0.6,2 0,0.2 -0.6,0.4 -1.4,0.4 -4.1,0 -0.6,12 5.2,18.3 3.6,3.8 3.6,3.4 0.1,-1.6 z m -269,1.6 c 2,-1.7 2.1,-2.2 1.1,-9.8 -1.1,-8.8 -3,-16 -6,-23 l -2,-4.6 -2.4,1.8 -2.4,1.8 2.1,5 c 3.4,8.3 5.6,17.7 5.6,24.3 0.1,6.6 0.6,7.2 4,4.5 z m 5.8,-8 c -0.6,-7.3 -3.6,-20.7 -4.5,-19.9 -0.3,0.3 -1.5,-1.6 -2.7,-4.3 -1.3,-2.7 -2.8,-5.2 -3.4,-5.5 -0.6,-0.4 -0.2,0.8 0.8,2.6 3.3,5.5 7.1,20.4 7.1,27.4 0,5.3 0.3,6.4 1.6,6.4 1.5,0 1.6,-0.9 1.1,-6.7 z m 8,4.3 c 1.3,-1.2 -4.1,-27.6 -7,-34.4 l -1.3,-3.2 -2.1,2.2 -2.1,2.3 3.3,13 c 1.9,7.2 3.4,15 3.5,17.4 0,4.2 0.1,4.3 2.7,3.6 1.6,-0.4 2.9,-0.8 3,-0.9 z M 364.2,273 c -0.5,-8.9 0.2,-13.2 2.1,-12.9 2.5,0.3 3.5,-0.1 4.1,-1.7 0.5,-1.4 0.4,-1.5 -0.8,-0.4 -1.1,0.8 -2.4,0.9 -4.2,0.3 -2.7,-0.9 -2.7,-0.9 1.4,-2.1 4.8,-1.5 6.2,-4 3.2,-6.2 -2,-1.5 -2,-1.7 -0.4,-6.5 0.9,-2.8 2,-5.4 2.4,-6 0.4,-0.5 1,-1.9 1.4,-3 1.3,-3.6 -1.9,0.4 -5.7,7 -2.8,5 -3.8,6 -5.8,5.7 -3.3,-0.4 -1.3,1.3 3.6,2.8 l 3.9,1.3 -3.9,1.8 c -2.2,1 -4.8,2 -5.8,2.3 -1.7,0.6 -1.7,0.8 0.7,3.7 1.4,1.7 2.6,4 2.6,5.2 -0.1,1.9 -0.3,1.8 -1.5,-0.8 -1.5,-3 -1.5,-2.9 -0.9,2 0.4,4.5 3.1,15.5 3.7,15.5 0.1,0 0.1,-3.6 -0.1,-8 z m -39.8,-7.1 c -0.7,-14.1 -0.7,-14.2 1.7,-16.1 1.3,-1.1 1.8,-1.7 1.2,-1.3 -0.7,0.3 -2.1,0.2 -3,-0.4 -1.7,-0.9 -1.7,-1 0.2,-1.7 5.2,-1.9 7.2,-6.5 3.8,-8.9 -1.6,-1.2 -1.4,-1.9 1.6,-9.1 1.8,-4.4 3.8,-8.5 4.3,-9.2 0.6,-0.7 0.9,-1.5 0.6,-1.7 -0.8,-0.8 -5.4,6.3 -8.3,12.8 -2,4.3 -3.2,5.7 -4.8,5.8 -1.5,0 -0.7,0.7 2.6,2.1 4.5,1.9 6.2,3.8 3.5,3.8 -0.7,0 -3.4,1.1 -6,2.4 -4.5,2.3 -4.6,2.4 -2.7,4.2 1.8,1.8 4,10.4 3.8,14.8 -0.1,1.9 -0.2,1.9 -1,-0.4 -0.6,-1.7 -0.7,-0.8 -0.3,3 0.5,5.7 2.3,14 3,14 0.3,0 0.1,-6.4 -0.2,-14.1 z m 90.2,9.3 c -0.4,-3.5 -0.2,-5.3 0.9,-7 1.5,-2 1.5,-2.1 -0.2,-1.5 -1.4,0.5 -1.3,0.1 0.6,-2 1.9,-2.1 2.2,-3.2 1.6,-6.6 -0.5,-2.9 -0.2,-5 0.9,-7.2 2.6,-5.2 1.2,-4.4 -2.8,1.7 -3.5,5.3 -3.6,5.6 -1.7,6.1 2.6,0.7 2.6,0.8 0,4.4 -1.5,2.2 -1.9,3.7 -1.4,6.6 0.3,2.1 0.8,5.3 1.1,7.1 0.8,5.1 1.7,3.7 1,-1.6 z m 53.7,0.3 c -2.9,-5.2 -2.5,-8 1,-7.1 1.2,0.3 3.3,0.9 4.7,1.2 l 2.5,0.7 -2.6,-2.1 c -3.4,-2.8 -2.8,-6.7 1.3,-8.8 4.1,-2.1 2.8,-2.9 -1.7,-1 -2.1,0.9 -4.4,1.6 -5.1,1.6 -2.1,0 -1.7,-4.5 0.7,-9.3 1.8,-3.4 1.9,-3.9 0.5,-2.8 -1.6,1.3 -6.6,10.2 -6.6,11.6 0,0.3 1.4,1.1 3.2,1.7 l 3.1,1.1 -2.6,2.1 c -3.5,2.8 -3.2,8.5 0.9,12.7 1.5,1.6 2.9,2.9 3,2.9 0.2,0 -0.9,-2 -2.3,-4.5 z m -255.8,-2.7 c -0.8,-8.1 -3.9,-21.6 -6.7,-29.5 -2,-5.9 -2,-6.4 -0.5,-8.1 2,-2.2 2.3,-3.9 0.4,-2.4 -0.7,0.6 -1.9,0.7 -2.6,0.3 -0.9,-0.6 -0.5,-1 1.3,-1.5 3.9,-1 3.7,-6.2 -0.4,-9.8 -2.6,-2.3 -3,-3.3 -3,-8.1 0,-5 1.2,-13.5 2.6,-18.2 0.4,-1.3 0.3,-1.7 -0.4,-1 -1.9,2 -4.2,11.1 -4.9,19.2 -0.3,4.6 -1,8.3 -1.4,8.3 -0.5,0 -0.9,0.4 -0.9,0.8 0,0.4 1.7,0.6 3.8,0.4 3.6,-0.3 3.6,-0.2 1.7,1.4 -1.4,1.1 -1.6,1.8 -0.8,2.1 1,0.4 1,1 -0.2,2.6 -2,2.8 -1.9,4.3 0.4,7.5 2.2,3.2 6.1,13.6 6,16 0,0.9 -0.7,-0.2 -1.6,-2.6 -2.4,-6.9 -2.3,-4.4 0.3,5.2 1.3,4.9 2.6,12.3 3,16.3 0.6,6.4 0.9,7.3 2.6,7.3 1.8,0 1.9,-0.5 1.3,-6.2 z M 336.2,266 c -0.4,-13.3 -0.3,-13.5 3.4,-13.1 0.7,0.1 1.5,-0.6 1.8,-1.5 0.5,-1.3 0.3,-1.4 -0.6,-0.7 -0.7,0.6 -2.2,0.7 -3.2,0.4 -1.7,-0.6 -1.5,-0.9 1.3,-2 4.2,-1.8 5.1,-5.4 2,-8.1 l -2.4,-1.9 4.8,-9.3 c 4.2,-8.2 4.4,-8.9 1.8,-5.8 -1.7,1.9 -4.4,6.1 -6.2,9.3 -1.7,3.2 -4,6.2 -5.2,6.6 -1.7,0.6 -1.3,1 2.6,2 4.7,1.1 6.4,3.1 2.7,3.1 -1.1,0 -2,0.4 -2,0.9 0,0.6 -1.3,1.8 -2.9,2.7 l -3,1.8 2,2.4 c 1.1,1.5 1.9,3.9 1.8,6.1 -0.1,3.3 -0.2,3.4 -0.9,1.1 -1.1,-3.6 -1.1,-2.5 0,7 1,7.6 1.8,12 2.3,12 0.1,0 0.1,-5.8 -0.1,-13 z m 85.8,8.5 c -0.6,-3 -0.8,-3.3 -0.9,-1.3 -0.1,2.5 0.8,6.2 1.4,5.6 0.2,-0.2 -0.1,-2.1 -0.5,-4.3 z m 29.7,-0.2 c -0.3,-1 -0.5,-0.2 -0.5,1.7 0,1.9 0.2,2.7 0.5,1.8 0.2,-1 0.2,-2.6 0,-3.5 z m 57.8,2.7 c -3.6,-1.5 -3.8,-1.8 -1.8,-2.4 1.1,-0.4 4.2,-0.2 6.7,0.5 2.6,0.6 4.9,0.9 5.2,0.7 0.3,-0.3 -4.5,-1.8 -10.6,-3.3 -11.5,-2.9 -16.5,-3 -6.3,-0.1 4.6,1.2 5,1.5 1.8,1.1 -2.2,-0.3 -5,-0.8 -6.2,-1.1 -1.7,-0.5 -2.3,-0.2 -2.3,0.9 0,2 7.8,5.2 13.1,5.3 l 4.4,0.1 z M 221,272.1 c 0,-8.4 -2.4,-20 -5.6,-26.6 l -2.6,-5.7 -2.4,2.3 -2.3,2.4 2,7 c 1.6,5.8 4.9,22.9 4.9,25.8 0,0.4 1.4,0.7 3,0.7 3,0 3,0 3,-5.9 z m 5,2.6 c 0,-5.7 -2.4,-19.6 -3.2,-19.1 -0.6,0.4 -0.8,-0.2 -0.4,-1.4 0.4,-1.1 -0.3,-6.1 -1.4,-11.1 -1.5,-6.4 -1.9,-9.5 -1.1,-10.8 0.9,-1.7 0.4,-10.3 -0.6,-10.3 -1.7,0 -6.3,3.4 -6,4.3 0.2,0.7 0,2 -0.5,3 -0.7,1.4 -0.2,2.6 2.1,5.2 1.7,1.9 3.9,6.4 5.1,10.1 2.7,9 2.5,11.2 -0.5,4 -1.3,-3.2 -2.9,-6.4 -3.5,-7 -0.6,-0.6 0.1,1.5 1.5,4.7 3,6.4 5.4,18.3 5.5,26.4 0,4.2 0.3,5.1 1.5,4.7 0.8,-0.4 1.5,-1.5 1.5,-2.7 z M 377.2,270 c -0.4,-7.6 -0.3,-8 1.6,-8 1.2,0 2.4,-0.5 2.8,-1.2 0.4,-0.6 0.3,-0.8 -0.4,-0.5 -0.5,0.4 -2,0.3 -3.3,-0.1 -2,-0.8 -1.9,-1 1.9,-2.5 4.3,-1.7 5.4,-3.9 2.7,-5.5 -1.4,-0.7 -1.4,-1.3 0,-5.2 0.9,-2.5 2.3,-5.6 3.2,-7 l 1.6,-2.5 -2.6,2.3 c -1.4,1.3 -3.6,4.3 -4.8,6.8 -1.3,2.4 -3,4.5 -3.9,4.7 -0.8,0.2 0.2,0.9 2.3,1.6 2,0.7 3.7,1.6 3.7,1.9 0,0.7 -3.8,2.5 -7.7,3.7 -2.8,0.8 -2.9,1.6 -0.3,3.3 1.5,0.9 1.9,1.9 1.4,3.7 -0.5,2 1.2,12.5 2,12.5 0.2,0 0.1,-3.6 -0.2,-8 z m 26.2,2.1 c -0.4,-3.9 -0.3,-6.1 0.5,-6.5 1.2,-0.8 1.5,-2.7 0.4,-2.4 -0.5,0 -1.6,-0.2 -2.6,-0.7 -2.8,-1.2 -4.4,1 -1.8,2.4 1.6,0.9 2.1,2.1 2.1,4.9 0,3.7 0.9,8.2 1.6,8.2 0.2,0 0.1,-2.6 -0.2,-5.9 z m 26.4,-5.2 c -0.5,-0.3 0.1,-1.4 1.2,-2.4 2.2,-2 2.6,-4.5 0.8,-6.3 -0.9,-0.9 -0.9,-1.8 0,-3.7 2,-4.3 1.3,-4.3 -1.3,0 -3,4.9 -3.1,5.5 -0.4,5.5 1.9,0 1.9,0.1 -0.5,3.3 -1.8,2.3 -2.2,3.7 -1.6,4.7 0.5,0.8 1,3.5 1.1,6 l 0.2,4.5 0.7,-5.5 c 0.3,-3 0.3,-5.8 -0.2,-6.1 z m 13.9,6.4 c -0.3,-1 -0.5,-0.2 -0.5,1.7 0,1.9 0.2,2.7 0.5,1.8 0.2,-1 0.2,-2.6 0,-3.5 z m -212,-4.3 c -0.7,-8.2 -4.3,-25.6 -5.6,-26.4 -0.4,-0.3 -1.2,-0.1 -1.9,0.3 -1,0.6 -0.9,2.2 0.2,7.7 0.8,3.8 2,11.3 2.6,16.7 1.1,8.7 1.5,9.7 3.3,9.7 1.9,0 2,-0.4 1.4,-8 z m 5.3,2.3 c 0,-3.2 -0.9,-10.9 -2.1,-17.1 -2.3,-12.1 -3.8,-14.8 -2,-3.6 1.2,8.2 0.7,9.7 -0.8,2.2 -0.7,-2.9 -1.6,-6 -2.2,-6.8 -0.9,-1.3 -1,-1.2 -0.5,0.2 1.2,4 3.5,16.8 4.2,23.6 0.5,5.1 1.1,7.2 2,7.2 1,0 1.4,-1.6 1.4,-5.7 z m 7.4,-0.5 c -0.7,-8.8 -2.2,-18.4 -4,-24.6 -1.4,-5.1 -1.5,-5.2 -3.8,-3.7 l -2.3,1.5 1.8,7.8 c 1.1,4.2 2.2,11.6 2.6,16.5 0.6,8.7 0.6,8.7 3.4,8.7 h 2.7 z m 5.1,5.2 c 0.8,-1.3 -1.3,-20.3 -3,-27.1 l -1.4,-5.4 0.5,6.5 0.4,6.5 -1.4,-5.3 c -0.7,-2.9 -1.7,-5.6 -2.1,-6 -0.4,-0.4 -0.5,0.2 -0.2,1.3 1.5,4.7 3.7,20.2 3.7,25.1 0,4 0.4,5.4 1.4,5.4 0.8,0 1.8,-0.4 2.1,-1 z m 7,-8.4 c -0.7,-8.8 -2.7,-19.5 -4.4,-23.9 -1,-2.4 -1.3,-2.6 -3.1,-1.5 -1.2,0.8 -1.8,1.9 -1.4,2.8 0.6,1.8 3.1,18.2 3.9,26.1 0.6,5.3 0.7,5.6 3.1,5.1 2.5,-0.5 2.5,-0.5 1.9,-8.6 z m 4.2,-3.3 c -0.4,-6.5 -1.3,-14 -2.2,-16.8 -0.8,-2.8 -1.3,-3.6 -1.1,-1.9 0.3,1.7 0.7,5.5 1,8.5 l 0.6,5.4 -1.5,-5 c -0.8,-2.7 -1.2,-3.6 -1,-2 0.3,1.7 0.8,7.6 1.1,13.3 0.6,8.1 1,10.2 2.2,10.2 1.3,0 1.4,-1.7 0.9,-11.7 z m 89.7,-7.1 c 0.4,-0.7 1.5,-1.1 2.4,-0.7 0.8,0.3 1.9,0 2.4,-0.7 1.3,-2.1 0.9,-3.3 -0.4,-1.6 -0.8,1 -2,1.3 -3.1,0.9 -1.4,-0.5 -1.1,-1 1.8,-2.5 4,-2.2 4.7,-5.4 1.5,-7.4 -2.7,-1.6 -2.6,-2.6 1.5,-11.2 4,-8.4 1.5,-6.1 -3.5,3.3 -2.5,4.5 -3.6,5.7 -5.6,5.7 -3.8,0 -2.8,1.7 1.5,2.4 3.9,0.6 6.7,2.6 3.8,2.6 -0.8,0 -3.3,1.1 -5.6,2.3 -4.1,2.3 -4.1,2.4 -2.1,4.2 1.7,1.5 1.9,2.6 1.4,7.1 -0.4,2.9 -0.3,7.4 0.1,10.1 l 0.8,4.8 1.1,-9 c 0.6,-4.9 1.5,-9.6 2,-10.3 z m 40.1,9.1 c 0.4,-1.5 1.3,-2.3 2.5,-2.3 1.1,0 2,-0.5 2,-1.1 0,-0.5 -0.4,-0.8 -0.9,-0.5 -0.5,0.3 -2.3,0.1 -4,-0.5 -3.7,-1.3 -5.4,-0.3 -2.8,1.6 1.2,0.8 1.8,2.4 1.7,4.2 -0.1,1.5 -0.1,3.9 0.1,5.3 0.2,1.9 0.3,1.6 0.6,-1 0.2,-1.9 0.6,-4.5 0.8,-5.7 z m 119.4,4.4 c -1.4,-0.7 -3.3,-2 -4.3,-2.9 -2,-2.1 -8.6,-2.5 -8.6,-0.5 0,0.7 2.8,1.9 6.8,2.9 8.1,1.9 9.5,2 6.1,0.5 z m -200,-11.5 c 0,-6.4 0.3,-12.5 0.6,-13.5 0.5,-1.2 0.2,-1.7 -1.1,-1.8 -1.1,0 -0.4,-0.5 1.5,-1 3.8,-1.2 4.9,-0.6 3.1,1.6 -0.8,0.9 -0.8,1.5 -0.2,1.5 1.2,0 2,-2.3 2.2,-6.5 0.3,-4.7 0.1,-5.2 -1.9,-5.8 -1.7,-0.4 -1.8,-0.9 -1,-4.7 0.5,-2.3 2.1,-6.5 3.6,-9.3 1.4,-2.8 1.9,-4.6 1.1,-4 -0.7,0.7 -3.2,4.6 -5.3,8.7 -3.3,6.3 -4.4,7.6 -6.5,7.7 -2.3,0 -2.3,0.1 -0.5,0.9 1.1,0.5 3.2,1.1 4.8,1.4 2.8,0.7 3.8,2.6 1.3,2.6 -0.8,0 -2.1,0.8 -2.8,1.9 -0.7,1 -2.3,2.1 -3.5,2.5 l -2.3,0.7 2.1,2.8 c 1.6,2.2 2.2,4.8 2.5,11.2 1,18.1 2.4,19.9 2.3,3.1 z m 142.3,8.9 c -1,-0.6 -1,-1 0.2,-2 1.1,-0.9 1.4,-3 1.3,-7.7 l -0.2,-6.4 -2,4.2 c -1.9,4 -1.9,4.3 -0.3,4.6 2.3,0.4 2.2,1.1 -0.1,4.2 -1.5,1.8 -1.7,2.9 -0.9,4.3 0.7,1.4 1.3,1.6 2.1,0.8 0.9,-0.9 0.9,-1.4 -0.1,-2 z m -30,-1 c -0.9,-0.6 -0.8,-1.2 0.8,-2.6 2.1,-1.9 2.7,-5.9 1,-7 -0.6,-0.4 -0.6,-1.5 0,-3.1 1.6,-4.2 1.1,-4.1 -1.5,0.1 -3,5 -3.1,5.5 -0.2,5.5 1.2,0 1.7,0.3 1.1,0.8 -2,1.3 -3.5,5.2 -2.9,7.3 0.5,1.6 1,1.8 1.8,1 0.9,-0.9 0.9,-1.4 -0.1,-2 z m 16.6,0.9 c 0.3,-0.9 -0.1,-1.1 -1.4,-0.6 -1.6,0.6 -1.6,0.4 0.3,-1.6 1.7,-1.8 2.1,-3.4 2,-7.5 -0.1,-2.9 -0.3,-5.3 -0.4,-5.3 -0.4,0 -3.3,6 -3.3,6.7 0,0.5 0.5,0.9 1,0.9 0.6,0.1 1.3,0.2 1.6,0.3 0.3,0 -0.4,1.4 -1.5,3 -1.2,1.7 -1.8,3.6 -1.5,4.6 0.7,1.8 2.5,1.6 3.2,-0.5 z m 7,0 c 0.3,-0.9 -0.1,-1.1 -1.4,-0.6 -1.7,0.6 -1.6,0.5 0.2,-1.5 1.4,-1.6 1.9,-3.6 1.9,-8 0,-3.2 -0.1,-5.9 -0.2,-5.9 -0.2,0 -1.1,1.8 -2.2,4 -1.9,3.9 -1.9,3.9 0,4.5 1.9,0.6 1.9,0.7 -0.1,3.5 -1.1,1.6 -1.7,3.5 -1.4,4.5 0.7,1.8 2.5,1.6 3.2,-0.5 z m 67.5,-3.7 c -3.5,-0.2 -9.1,-0.2 -12.5,0 -3.5,0.2 -0.7,0.3 6.2,0.3 6.9,0 9.7,-0.1 6.3,-0.3 z m -336.7,-7.5 -1.4,-3.3 -0.1,3.2 c -0.1,1.7 0.2,3.9 0.5,4.8 0.6,1.5 0.8,1.5 1.6,0.2 0.5,-1 0.3,-2.8 -0.6,-4.9 z m 230.8,4.2 c 2.9,-1.1 3.3,-3.1 1.1,-5 -1.7,-1.4 -1.4,-3.4 1.6,-9.2 3,-6.1 0.6,-4.4 -3.2,2.2 -2.1,3.6 -4.1,6 -5.1,6 -1,0 -1.8,0.5 -1.8,1 0,0.6 1.1,1 2.4,1 1.3,0 3.2,0.3 4.1,0.7 1.5,0.5 1.5,0.8 -0.6,2.4 -2.7,2.1 -2.2,2.4 1.5,0.9 z m 100.6,0.1 c -3.7,-0.6 -4,-0.8 -2,-1.3 2,-0.4 1.7,-0.6 -1.5,-0.8 -3.5,-0.2 -3.7,-0.3 -1.5,-1 2.1,-0.7 1.9,-0.8 -1.7,-0.9 -3.9,-0.1 -4.3,0.1 -4.3,2.4 0,2.5 0.1,2.5 7.8,2.3 6.6,-0.1 7.1,-0.2 3.2,-0.7 z M 395.1,259 c 2.3,-1.3 2.5,-3.3 0.4,-5 -1.2,-1 -1.2,-1.7 0.2,-5.3 0.9,-2.3 2.4,-5.3 3.2,-6.7 1.5,-2.4 1.5,-2.4 -0.3,-1 -1,0.8 -3.2,3.8 -4.8,6.7 -1.6,2.9 -3.6,5.3 -4.4,5.3 -2.8,0 -1.3,1.8 2.1,2.4 4,0.8 4.2,1.3 1.8,3.2 -2.1,1.6 -1,1.8 1.8,0.4 z M 519,254 c 4.2,-1 -9.5,-0.2 -18,1.1 -4.1,0.6 -3,0.7 4.5,0.3 5.5,-0.3 11.6,-0.9 13.5,-1.4 z m -2,-2 c 5.2,-0.7 4.9,-0.8 -4,-1 -9.5,-0.2 -9.5,-0.2 -5,-1.4 l 4.5,-1.3 -6.5,0.3 c -3.6,0.1 -7.3,0.3 -8.2,0.3 -1.2,0.1 -1.8,0.9 -1.8,2.6 v 2.5 l 7.8,-0.6 C 508,253 514,252.4 517,252 Z m -323.4,-5.1 c -2,-5.6 -2,-8.3 0,-12.1 2.4,-4.6 1.2,-9.5 -2.6,-10.3 -2.5,-0.6 -3,-1.2 -3.6,-5.1 -0.3,-2.5 -0.4,-8.2 -0.2,-12.6 0.3,-4.4 0.2,-7.4 -0.3,-6.6 -1,1.8 -2.7,11 -3.5,18.6 -0.4,3.9 -1.2,6.6 -2,6.9 -1.9,0.7 -0.6,2.5 1.4,1.9 1,-0.2 3.1,-0.7 4.7,-1 l 3,-0.6 -2.7,2.1 c -3.1,2.3 -3.6,3.9 -1.3,3.9 1.2,0 1.3,0.4 0.4,1.9 -1,1.5 -0.8,2.4 1.3,5.2 1.4,1.9 3.3,5.5 4.3,8.2 2.2,5.9 3.1,5.6 1.1,-0.4 z m 89.9,-2.2 c -0.5,-2.5 -0.1,-4.3 1.4,-6.8 2.4,-3.9 2.6,-7.6 0.7,-10.2 -1.9,-2.4 0.1,-9.9 5.3,-20.8 l 2.2,-4.4 -3,3.4 c -1.7,1.9 -4.4,7 -6.2,11.3 -2.1,5.4 -3.9,8.2 -5.3,8.8 -1.8,0.7 -1.6,0.9 1.7,1.5 4.4,0.9 5.9,2.5 2.3,2.5 -1.4,0 -2.8,0.5 -3.1,1 -0.3,0.6 -0.1,1 0.4,1 0.6,0 0.2,0.9 -0.9,2 -2,2 -2,2 1.3,8 1.7,3.3 3.3,6 3.5,6 0.2,0 0,-1.5 -0.3,-3.3 z m 219.9,1.7 c 10.5,-2.7 19.8,-5.5 19.4,-6 -0.5,-0.4 -25.9,6.3 -26.7,7.1 -0.7,0.8 0.8,0.6 7.3,-1.1 z m 5.8,-4.1 c 7.6,-2 13.6,-3.8 13.5,-4 -0.2,-0.2 -3.9,0.4 -8.1,1.3 -4.3,0.9 -8,1.4 -8.2,1.1 -0.3,-0.2 2,-1.5 5.1,-2.7 8.5,-3.4 6,-3.4 -3,0 -8.5,3.4 -11.1,3.3 -4.6,0 2.3,-1.1 4,-2.4 3.7,-2.8 -0.2,-0.4 3.2,-2.2 7.5,-4.1 4.4,-1.8 7.8,-3.5 7.5,-3.8 -0.4,-0.5 -21.1,7.9 -26.6,10.8 -4.9,2.6 -3.4,2.3 3.9,-0.7 3.5,-1.4 6.5,-2.3 6.7,-2.1 0.3,0.2 -2.1,1.5 -5.3,2.7 -3.2,1.3 -6.4,2.8 -7.1,3.5 -1.2,1.1 -0.7,4.5 0.7,4.5 0.3,0 6.8,-1.6 14.3,-3.7 z m -313.1,-0.6 c -1.3,-1.3 -2.6,-0.3 -1.6,1.2 0.3,0.6 1.1,0.8 1.7,0.5 0.6,-0.4 0.6,-1 -0.1,-1.7 z m 75.5,-5.1 c 0.8,-1.1 1.4,-3.8 1.4,-5.9 0,-3.8 -0.1,-3.9 -2.7,-3.2 -1.6,0.4 -2.8,0.7 -2.8,0.8 0,0.1 -0.7,1.6 -1.7,3.2 -1.5,2.7 -1.5,3.2 -0.1,5 0.8,1.1 2,3.4 2.6,5 l 1.2,3 0.3,-3 c 0.2,-1.6 1,-3.8 1.8,-4.9 z m 1.5,3.7 c -0.9,-1.6 -1,-1.4 -1.1,1.2 0,2.1 0.3,2.6 1.1,1.8 0.8,-0.8 0.8,-1.6 0,-3 z M 208,239 c -1.8,-1.1 -2.2,-0.7 -1.4,1.4 0.5,1.3 1,1.4 1.8,0.6 0.8,-0.8 0.7,-1.3 -0.4,-2 z m 26.9,0.4 c -1.5,-1.8 -2.2,-1.3 -1.3,1 0.3,0.9 1,1.3 1.6,1 0.5,-0.3 0.4,-1.2 -0.3,-2 z m -0.9,-12 c 0,-2.8 -0.6,-4.6 -2,-5.9 -2.5,-2.2 -2.7,-9.4 -0.5,-17.5 0.8,-3 1.3,-5.6 1.1,-5.7 -0.6,-0.7 -3.7,7.9 -5.2,14.6 -0.9,3.6 -2,7.1 -2.6,7.8 -0.8,1 -0.2,1.3 2.8,1.3 3.8,0 3.8,0 1.5,1.6 -1.7,1.2 -2,1.9 -1,2.4 0.9,0.6 0.9,1.2 -0.4,2.5 -2.1,2.1 -2.1,1.9 0.5,6.4 l 2.2,3.8 1.8,-3.6 c 1,-1.9 1.8,-5.4 1.8,-7.7 z m 12.7,3.9 c -0.3,-0.2 -0.2,-1.7 0.3,-3.2 1.1,-4 0,-5.4 -3.3,-4.2 -1.5,0.6 -2.7,1.5 -2.7,2.1 0,0.6 0.6,0.8 1.3,0.4 0.6,-0.4 0.1,0.5 -1.2,1.9 l -2.5,2.7 2.2,3 c 1.2,1.6 2.2,3.5 2.2,4.2 0,0.7 0.9,-0.5 2.1,-2.6 1.1,-2.1 1.8,-4 1.6,-4.3 z m 13.4,-2 c 0.2,-2.8 -0.3,-4.8 -1.4,-6.1 -2.4,-2.6 -2.1,-6.5 1.2,-15.9 1.6,-4.6 2.7,-8.3 2.5,-8.3 -0.8,0 -6.2,11.7 -7.4,16 -0.7,2.5 -2.1,5.2 -3.1,6.2 -1.8,1.5 -1.7,1.7 2.1,2.3 4.7,0.8 6.3,2.5 2.5,2.5 -2,0 -2.6,0.4 -2.1,1.5 0.3,0.8 0.1,1.5 -0.4,1.5 -1.8,0 -2.1,4 -0.4,6.5 l 1.7,2.6 2.3,-2.3 c 1.6,-1.5 2.4,-3.7 2.5,-6.5 z m 246.1,3 c 7.6,-3.1 13.6,-5.8 13.4,-6 -0.2,-0.2 -5,1.4 -10.7,3.6 -5.6,2.2 -10.4,3.9 -10.6,3.7 -0.1,-0.1 1.5,-1.3 3.7,-2.5 5.7,-3.2 5,-3.6 -1,-0.6 -7.3,3.7 -7.4,3 0,-1.6 7.1,-4.5 9.6,-6.4 6.8,-5.4 -4,1.5 -1.3,-0.6 6.2,-5 4.4,-2.6 8,-4.9 8,-5.1 0,-0.3 -0.9,0 -2.1,0.6 -1.1,0.7 -2.3,1 -2.5,0.7 -0.3,-0.3 2,-1.9 5.1,-3.6 3,-1.7 5.5,-3.4 5.5,-3.7 0,-0.3 -1.9,0.5 -4.2,1.9 -2.4,1.3 -8.3,4.5 -13.3,7.1 -8.7,4.6 -8.9,4.4 -1.4,-1.7 4.2,-3.5 2.3,-2.6 -5.6,2.6 l -6,3.9 3.6,-3.4 c 1.9,-1.8 6,-5.5 9,-8.1 3.6,-3.3 4.3,-4.1 1.9,-2.6 -6.9,4.5 -21.5,15.3 -22.7,16.8 -1.2,1.4 -1.9,7.1 -0.9,7.1 0.3,0 5.3,-2.9 11.3,-6.5 5.9,-3.6 11.3,-6.5 11.8,-6.5 0.6,0 -1.4,1.4 -4.2,3.1 -5.7,3.3 -6.7,4.4 -3,3.4 2.1,-0.6 2.1,-0.6 0.3,0.9 -2.2,1.8 -4,2.1 -3.1,0.6 1,-1.6 -0.3,-1.2 -5.1,1.6 -5.5,3.3 -5.8,4.1 -0.3,1.4 6.2,-3.2 5.8,-1.7 -0.6,1.9 -3.8,2.1 -5.5,3.7 -5.5,5.1 0,1.1 0.6,2 1.3,2 0.6,0 7.4,-2.5 14.9,-5.7 z M 167,226.6 c 0,-0.8 -3.1,-3.6 -4.1,-3.6 -0.5,0 -0.4,0.9 0.3,2 1.1,1.7 3.8,2.8 3.8,1.6 z M 270.5,225 c -0.8,-1.3 1.9,-10.6 5.6,-19.4 2.5,-5.8 2.6,-6.7 1,-5.2 -2.3,2.1 -7.4,12.4 -9.2,18.5 -0.9,2.9 -2,4.6 -3.4,5 -1.7,0.4 -1.6,0.6 1,1.2 4.6,1 5.7,1 5,-0.1 z m -56.2,-3 c 2.1,0 2.2,-0.4 1.9,-7.8 -0.2,-4.7 0.3,-10.5 1.3,-14.6 0.8,-3.8 1.3,-7.1 1.1,-7.3 -1,-1 -4.6,11.4 -5.6,19.3 -0.8,6 -1.6,9.2 -2.8,10.2 -1.6,1.3 -1.6,1.3 0.1,0.8 1,-0.3 2.8,-0.6 4,-0.6 z m 29.7,-0.5 c -1.5,-1.8 -0.7,-9.6 2,-18.6 1.1,-3.5 1.8,-6.4 1.6,-6.6 -0.7,-0.7 -5.6,11.6 -7,17.4 -0.7,3.4 -1.7,6.6 -2,7.2 -0.6,0.9 1.3,1.6 5.3,2 1.1,0.1 1.1,-0.2 0.1,-1.4 z M 160.3,210 c 0.7,-8.9 -0.2,-9.1 -2.2,-0.4 -1,4.2 -1,5.6 0,7.2 0.7,1.2 1.4,2 1.5,1.9 0.1,-0.1 0.4,-4 0.7,-8.7 z m 347.5,-1.6 c 17.1,-12.2 16.8,-12.8 -0.6,-1.1 -9.3,6.3 -12.3,8.7 -10.7,8.7 0.3,0 5.4,-3.4 11.3,-7.6 z"
       id="path2"
       inkscape:connector-curvature="0" />
    <path
       d="m 323.1,327.3 c -2.3,-2.7 -4.1,-5.2 -4.1,-5.8 0,-1 3,2.3 7.1,7.8 3.3,4.4 1.4,3.1 -3,-2 z"
       id="path4"
       inkscape:connector-curvature="0" />
    <path
       d="m 41,300 c -0.8,-0.5 -0.6,-0.9 0.5,-1.4 2.4,-0.9 5.5,-0.7 5.5,0.3 0,1.2 -4.6,2 -6,1.1 z"
       id="path6"
       inkscape:connector-curvature="0" />
    <path
       d="m 182.3,308.9 c -3.8,-2.4 -4.4,-5.1 -1,-4.5 1.2,0.2 3,-0.1 4,-0.6 1.5,-0.8 1.7,-0.4 1.7,3.2 0,4.6 -0.3,4.7 -4.7,1.9 z"
       id="path8"
       inkscape:connector-curvature="0" />
    <path
       d="m 101,301.1 c 1.6,-1.1 1.5,-1.2 -1.5,-3 -1.9,-1.2 -1.8,-1.2 0.5,-0.6 7.8,1.8 13.6,2.6 15.9,2.1 1.8,-0.4 2.1,-0.3 1.1,0.3 -2.2,1.3 -17.9,2.5 -16,1.2 z"
       id="path10"
       inkscape:connector-curvature="0" />
    <path
       d="m 92.1,295.3 c -0.6,-2.1 -1.1,-4.9 -1.1,-6.2 0,-1.4 -1,-3.6 -2.2,-4.9 -2.3,-2.4 -2.3,-2.5 -0.2,-1.4 2.5,1.3 7.4,6.9 7.4,8.4 0,0.6 -0.7,0.5 -1.7,-0.3 -1.5,-1.3 -1.6,-1 -1.1,3.4 0.7,5.7 0.3,6 -1.1,1 z"
       id="path12"
       inkscape:connector-curvature="0" />
    <path
       d="m 106.3,296.3 c -3.6,-0.7 -2.7,-1.8 1.7,-2 4.5,-0.3 13.9,-4.1 10.4,-4.2 -1.1,-0.1 -2.8,-0.7 -3.7,-1.3 -1.5,-1.1 -0.8,-1.3 4.4,-1.5 7.9,-0.2 16,-4 19.4,-9.2 1.6,-2.4 3.4,-8.1 5.2,-16.8 2.4,-11.3 2.6,-13.7 1.5,-16.5 -1.5,-4.1 -0.9,-4.7 1.4,-1.4 1.5,2.5 1.6,4 0.5,18.4 -1.4,17.6 -2.2,20.2 -8.7,26.2 -6.8,6.2 -22.2,10.2 -32.1,8.3 z"
       id="path14"
       inkscape:connector-curvature="0" />
    <path
       d="m 138.9,290.4 c 8.1,-7.3 8.7,-8.9 9.6,-24.9 1,-18.1 0.9,-20.2 -0.9,-22.8 -10.7,-14.8 -14.6,-19.5 -17.8,-21.2 -3,-1.6 -4,-1.7 -5,-0.7 -1,1 -0.9,1.8 0.5,4.1 2.4,4.2 2.1,4.5 -1.5,1.8 -4.6,-3.4 -9.1,-4.7 -16.2,-4.7 h -6.1 l 3.5,-2.1 3.4,-2.1 -2.4,-2 -2.5,-2 4.9,0.7 c 4.6,0.7 4.8,0.7 4.4,-1.6 -0.2,-1.5 -1.2,-2.5 -2.7,-2.9 -2.4,-0.5 -2.4,-0.6 1.3,-2.8 5.8,-3.4 21.6,-9.8 21.6,-8.7 0,0.3 -1.9,1.4 -4.2,2.6 -5,2.5 -13.7,8.2 -13.8,8.9 0,0.4 1.5,1.1 3.3,1.8 1.8,0.6 6.6,3.4 10.8,6.1 5.9,3.9 8.7,6.6 12.6,12.3 2.8,4 6.3,8.6 7.7,10.1 3.6,3.8 3.8,5.6 3.4,21.9 -0.3,13.5 -0.5,14.6 -3,19 -3,5 -10.6,12.3 -13.8,13.1 -1.2,0.3 0,-1.2 2.9,-3.9 z"
       id="path16"
       inkscape:connector-curvature="0" />
    <path
       d="M 74.8,283.2 C 71.9,280 67.7,275 65.6,272 c -3.6,-5 -3.6,-5.2 -1,-3.1 1.6,1.2 4.7,3.6 6.9,5.2 l 4,3.1 0.5,-3.4 0.5,-3.3 2.8,3.6 c 2.1,2.8 2.7,4.7 2.7,8.7 0,2.8 -0.4,5.3 -0.9,5.6 -0.5,0.3 -3.3,-2 -6.3,-5.2 z"
       id="path18"
       inkscape:connector-curvature="0" />
    <path
       d="m 67.3,265.7 c -1.8,-2 -3.7,-5.7 -2.9,-5.7 0.7,0 5.8,7.1 5.4,7.6 -0.3,0.2 -1.4,-0.6 -2.5,-1.9 z"
       id="path20"
       inkscape:connector-curvature="0" />
    <path
       d="m 103.4,258.3 c 1.3,-0.4 0.2,-1.2 -4,-3 -8.1,-3.5 -10.7,-3.8 -12.8,-1.8 -1.6,1.6 -1.9,1.4 -6.3,-2.9 -4.6,-4.6 -4.6,-4.6 -3.9,-10 0.4,-3.9 0.2,-5.6 -0.7,-5.9 -0.6,-0.3 0.7,-0.6 3.1,-0.6 5.1,-0.1 9.4,-1.8 15.2,-6 3.7,-2.7 5.1,-3.1 10.4,-3.1 3.4,0 8.4,0.7 11.1,1.5 3.3,1 3.8,1.3 1.6,1 -3.3,-0.5 -3.3,-0.4 -1.8,1.3 1.1,1.2 1.7,3.6 1.7,6.3 0,5.5 -2.5,17.6 -4,19.4 -1.5,1.8 -7.4,4.5 -9.7,4.4 -1.7,-0.1 -1.7,-0.2 0.1,-0.6 z M 87,251 c 1.2,-0.8 1.1,-1 -0.7,-1 -1.3,0 -2.3,0.5 -2.3,1 0,1.3 1.1,1.3 3,0 z m 27.9,-14.4 c 0.1,-6.1 -2.6,-9.6 -7.3,-9.5 -2.8,0 -2.9,0.1 -1,0.9 3,1.2 4.3,3.4 1.5,2.5 -2.8,-0.9 -2.7,0.6 0.4,3.5 1.5,1.4 2.9,4.4 3.7,7.9 1.2,5.2 1.3,5.4 1.9,2.6 0.4,-1.6 0.7,-5.2 0.8,-7.9 z"
       id="path22"
       inkscape:connector-curvature="0" />
    <path
       d="m 53.8,253.7 c -1.4,-0.6 -2.9,-1.9 -3.1,-2.9 -0.6,-2.1 0.3,-2.3 2.4,-0.5 1.6,1.3 4.4,4.8 3.8,4.6 -0.2,-0.1 -1.6,-0.6 -3.1,-1.2 z"
       id="path24"
       inkscape:connector-curvature="0" />
    <path
       d="m 60.2,252.8 c -1.7,-1.7 -1.6,-7.8 0.2,-7.8 2.1,0 7.6,-4.9 7.6,-6.7 0,-2.7 2.9,0.5 4,4.5 1.1,4.1 0.7,5 -1.4,3.3 -1.1,-1 -2.3,-0.8 -5.6,0.9 -3.5,1.8 -4.1,2.5 -3.7,4.6 0.5,2.8 0.5,2.8 -1.1,1.2 z"
       id="path26"
       inkscape:connector-curvature="0" />
    <path
       d="m 77.8,252.9 c -1.9,-1.1 -4.3,-4.9 -3.1,-4.8 0.4,0 1.8,1.3 3.1,3 2.6,3.2 2.6,3.3 0,1.8 z"
       id="path28"
       inkscape:connector-curvature="0" />
    <path
       d="m 84.9,226.6 c 1.6,-1.9 7.4,-4.6 9.8,-4.6 1,0 -0.9,1.4 -4.1,3 -6.7,3.4 -7.3,3.6 -5.7,1.6 z"
       id="path30"
       inkscape:connector-curvature="0" />
    <path
       d="m 136.5,221.6 c -1.6,-1.5 -6.4,-4.8 -10.5,-7.2 l -7.5,-4.4 5.2,0.1 c 4.2,0.2 6.6,-0.5 11.7,-3.1 3.6,-1.8 7.2,-3 8,-2.7 1.4,0.6 2.6,2.3 8.5,11.9 l 2.2,3.7 -2.8,-1.4 c -3.4,-1.8 -8.7,-1.9 -10.1,-0.2 -0.6,0.6 -1.2,2.3 -1.4,3.7 l -0.3,2.5 z"
       id="path32"
       inkscape:connector-curvature="0" />
    <path
       d="m 297.6,292.3 c -0.7,-1.6 -1.6,-4.4 -2,-6.3 -0.5,-3.3 -0.5,-3.2 1,0.8 0.9,2.3 2.4,4.7 3.5,5.2 2.3,1.3 2.5,3 0.4,3 -0.8,0 -2.1,-1.2 -2.9,-2.7 z"
       id="path34"
       inkscape:connector-curvature="0" />
    <path
       d="m 294.6,241.2 c -0.3,-0.5 0.6,-1.2 2,-1.5 1.5,-0.3 2.3,0 2.1,0.7 -0.5,1.4 -3.3,2 -4.1,0.8 z"
       id="path36"
       inkscape:connector-curvature="0" />
    <path
       d="m 176.2,236 c 1.3,-2 2.8,-2.7 2.8,-1.2 0,1 -2.2,3.2 -3.2,3.2 -0.5,0 -0.3,-0.9 0.4,-2 z"
       id="path38"
       inkscape:connector-curvature="0" />
    <path
       d="m 216,231 c 1.9,-1.3 3,-1.3 3,0 0,0.6 -1,1 -2.2,1 -1.9,0 -2,-0.2 -0.8,-1 z"
       id="path40"
       inkscape:connector-curvature="0" />
    <path
       d="m 191,232.9 c 0.7,-1.1 1.4,-1.8 1.7,-1.5 0.8,0.8 -0.5,3.6 -1.7,3.6 -0.7,0 -0.7,-0.6 0,-2.1 z"
       id="path42"
       inkscape:connector-curvature="0" />
    <path
       d="m 280.5,237 c -0.4,-0.6 0.5,-1 2,-1 1.5,0 2.4,0.4 2,1 -0.3,0.6 -1.2,1 -2,1 -0.8,0 -1.7,-0.4 -2,-1 z"
       id="path44"
       inkscape:connector-curvature="0" />
    <path
       d="m 267.6,235.2 c -0.3,-0.5 0.6,-1.2 2,-1.5 1.5,-0.3 2.3,0 2.1,0.7 -0.5,1.4 -3.3,2 -4.1,0.8 z"
       id="path46"
       inkscape:connector-curvature="0" />
    <path
       d="m 229.6,232.1 c -0.3,-0.5 0.3,-1.1 1.4,-1.4 1.3,-0.3 2,0 2,0.9 0,1.5 -2.6,1.9 -3.4,0.5 z"
       id="path48"
       inkscape:connector-curvature="0" />
    <path
       d="m 242.5,232 c -0.3,-0.5 0.3,-1 1.4,-1 1.2,0 2.1,0.5 2.1,1 0,0.6 -0.6,1 -1.4,1 -0.8,0 -1.8,-0.4 -2.1,-1 z"
       id="path50"
       inkscape:connector-curvature="0" />
    <path
       d="m 254.5,233 c -0.4,-0.6 0.5,-1 1.9,-1 1.4,0 2.6,0.5 2.6,1 0,0.6 -0.9,1 -1.9,1 -1.1,0 -2.3,-0.4 -2.6,-1 z"
       id="path52"
       inkscape:connector-curvature="0" />
    <path
       d="m 513.4,216.5 c 1.1,-0.8 2.4,-1.5 3,-1.5 0.5,0 0.1,0.7 -1,1.5 -1,0.8 -2.3,1.4 -2.9,1.4 -0.5,0 -0.1,-0.6 0.9,-1.4 z"
       id="path54"
       inkscape:connector-curvature="0" />
    <path
       d="m 377,238.2 c 0,-1 1.8,-5.5 4,-10.1 2.2,-4.5 4,-8.4 4,-8.6 0,-0.2 -1.4,-0.8 -3.2,-1.4 -3,-1.1 -3.4,-0.9 -6.1,2.1 -1.5,1.8 -4.9,6.2 -7.5,9.8 -6.4,8.8 -6.9,5.5 -0.9,-6.2 2.5,-4.8 4.3,-8.9 3.9,-9.1 -0.4,-0.3 -1.9,-0.7 -3.4,-1.1 -2.3,-0.5 -3.2,0.1 -7.6,5.2 -2.7,3.1 -6.3,7.6 -7.9,9.9 -6.5,9 -4,-0.8 2.6,-10.6 2.3,-3.3 4.1,-6.4 4.1,-6.9 0,-0.6 -1.2,-1.3 -2.6,-1.6 -3.4,-0.9 -8.3,2.8 -13.8,10.5 -2.2,3.2 -4.5,5.8 -5,5.8 -2,0.2 2.5,-9.8 8,-17.6 1.5,-2 1.4,-2.1 -2.8,-2.8 -4.2,-0.7 -4.4,-0.6 -8.7,4.1 -2.4,2.7 -6.5,8.1 -9,11.9 -2.8,4.4 -4.7,6.4 -4.9,5.4 -0.4,-2.3 4.1,-12.1 8.7,-18.9 l 3.9,-5.6 -4.2,-1.2 c -3.9,-1.1 -4.2,-1 -6.4,1.6 -4.5,5.2 -14.2,18.4 -14.2,19.3 0,0.5 -0.4,0.9 -1,0.9 -0.5,0 -1,-0.7 -1,-1.5 0,-1.7 5.9,-13.8 9.7,-19.8 1.3,-2.1 2.3,-4 2.1,-4.1 -0.2,-0.1 -2.4,-0.7 -5,-1.3 l -4.8,-1 -3.8,5.1 c -2.1,2.8 -5.6,8.1 -7.7,11.9 -3.8,6.6 -5.5,8.2 -5.5,5.2 0,-2.6 3.9,-12 7.5,-18 2,-3.2 3.4,-5.9 3.3,-6.1 -0.2,-0.1 -1.9,-0.5 -3.9,-0.9 -3.5,-0.7 -3.6,-0.6 -8.9,7.1 -3,4.3 -6.6,10 -8.1,12.7 -1.4,2.7 -2.9,4.5 -3.3,3.9 -0.8,-1.3 1.3,-7.1 6.3,-17.1 2.3,-4.6 4,-8.6 3.7,-8.9 -0.3,-0.3 -2.5,-0.7 -4.9,-0.9 -4.1,-0.4 -4.4,-0.3 -7.1,3.7 -1.5,2.3 -4.7,8.4 -7.1,13.6 -2.4,5.2 -4.7,9.4 -5.1,9.4 -1.4,0 0.8,-8.7 4.8,-18.3 4.5,-11 4.3,-11.9 -2.2,-11.5 -3.4,0.3 -3.7,0.6 -9.5,12 -6,11.9 -8.2,14.5 -7,8.6 0.7,-3.3 5.4,-17.6 7,-21.1 0.7,-1.6 0.3,-1.8 -3.6,-1.5 l -4.4,0.3 -5.1,10 c -2.8,5.6 -5.3,10.7 -5.6,11.5 -0.3,0.8 -0.9,1.2 -1.3,0.7 -0.8,-0.6 3.1,-17.6 5,-21.9 0.6,-1.6 0.1,-1.8 -3.4,-1.8 h -4.2 l -3.8,8.3 c -2.1,4.6 -4.4,10.1 -5.2,12.3 -2.2,6.6 -3.2,6.4 -2.5,-0.6 0.6,-6 2.4,-14.1 4.1,-18.2 0.6,-1.5 0.2,-1.8 -2.7,-1.8 -1.9,0 -4.1,0.6 -5,1.3 -0.8,0.6 -3.2,5.3 -5.2,10.2 -2.1,5 -4.1,9.9 -4.6,11 -2.2,5 -0.8,-11.8 1.6,-19.7 0.4,-1.5 -0.1,-1.8 -3.5,-1.8 -3.6,0 -4.4,0.4 -6.1,3.3 -1.1,1.7 -3,6.4 -4.1,10.2 -1.2,3.9 -2.4,7.7 -2.7,8.5 -0.3,1 -0.7,0.6 -1.2,-1.3 -0.8,-2.6 0,-10.9 1.5,-16.8 0.6,-2.5 0.5,-2.5 -3.7,-2.2 -2.4,0.2 -4.8,1 -5.4,1.8 -0.6,0.8 -2.4,5.8 -4,11 -1.5,5.2 -3.2,9.5 -3.6,9.5 -1.1,0 -1,-7.7 0.2,-14 0.6,-2.9 0.8,-5.5 0.6,-5.8 -0.3,-0.2 -1.6,-0.2 -2.9,0.2 -2.6,0.6 -5.5,6.2 -7.9,15 -0.7,2.5 -1.6,4.6 -2.2,4.6 -0.9,0 -0.2,-12.2 0.9,-15.2 0.6,-1.4 0.2,-1.6 -2.2,-1 -2.3,0.6 -3.5,2.1 -6.3,8 -1.9,3.9 -3.8,7.2 -4.2,7.2 -1.3,0 -0.8,-5.2 0.7,-9.5 0.8,-2.2 1.5,-4.7 1.5,-5.6 0,-1.9 12.3,-8.3 19.1,-10 l 4.6,-1.1 0.6,-7.6 c 0.3,-4.3 1.3,-9.7 2.1,-12.1 1.6,-4.4 6.4,-11.6 7.2,-10.8 0.2,0.2 -0.5,3.9 -1.6,8.2 -2.5,9.6 -2.7,20.5 -0.5,20.5 0.8,0 1.5,-0.3 1.5,-0.7 0,-0.5 0.7,-4.8 1.5,-9.8 2.7,-16.7 8.6,-29.8 17.4,-38.5 5.1,-5 11.9,-9.5 13,-8.5 0.2,0.3 -2.3,3.3 -5.6,6.8 -6.3,6.8 -13.1,18.8 -15.7,27.7 -0.9,3 -1.9,9 -2.4,13.3 -0.8,7.4 -0.7,7.8 1.2,7.5 1.7,-0.3 2.3,-2 4.3,-11.3 4.2,-20.5 15.5,-37.5 29.5,-44.4 6.6,-3.3 9.6,-3.2 5.1,0.1 -14,10.5 -24.1,26 -27.4,42.3 -2.5,11.9 -2.5,12.3 0.6,11.7 1.9,-0.3 2.5,-1.1 2.5,-2.9 0,-1.4 0.9,-5.9 2,-10.2 5.1,-20.2 15.1,-33.8 29.4,-40.1 2.6,-1.2 5.6,-2 6.7,-1.8 1.6,0.2 0.2,1.6 -5.7,5.8 -12.3,8.8 -19.3,19.3 -23.4,35.6 -2.5,9.7 -2.6,13.7 -0.4,13.2 1.2,-0.2 2.2,-2.6 3.5,-7.8 2.2,-9.3 4.6,-14.9 9.9,-23.4 5.1,-8 11.3,-13.6 19.7,-17.8 6.7,-3.3 9.8,-3 4.8,0.5 -6,4.1 -16.2,15.4 -20.3,22.2 -4,6.8 -9.7,23.8 -8.6,25.6 0.8,1.4 4.4,1 4.4,-0.5 0,-3.4 5.5,-17.7 9.2,-24 6.8,-11.5 15.9,-19 25.6,-21.1 4.6,-1 3.9,0.5 -1.9,4 -6.6,3.9 -16,13.7 -19.3,20.2 -2.5,5.1 -7.6,19.2 -7.6,21.2 0,0.6 0.9,0.9 2.1,0.8 1.5,-0.3 2.8,-2.2 4.9,-7 5.9,-13.9 15.8,-26 25.2,-30.6 7.5,-3.6 9.2,-2.3 3.1,2.2 -9.6,7 -18.4,18.9 -23.3,31.5 -1.4,3.7 -1.4,3.8 2.1,4.7 2.4,0.6 2.9,0 7.3,-7.6 2.6,-4.5 6.9,-10.3 9.5,-12.9 4.9,-4.9 13.8,-10.7 14.8,-9.7 0.3,0.4 -3,4.4 -7.3,9 -7,7.4 -14.4,18.5 -14.4,21.6 0,0.6 1.1,1.1 2.4,1.1 1.7,0 3.4,-1.5 6.4,-5.8 2.3,-3.3 5.6,-7 7.4,-8.4 4.2,-3.2 11.8,-7.1 12.5,-6.4 0.3,0.3 -2.2,3 -5.5,6.1 -5.4,5 -13,15.1 -12.1,15.9 0.2,0.2 2,0.6 3.9,0.9 3.1,0.6 3.8,0.3 6,-2.8 2.9,-4.1 8.9,-8.5 11.4,-8.5 1.3,0 0.3,1.7 -3.8,6.2 -5.6,6.3 -6.1,7.8 -2.4,7.8 1.2,0 5.7,0.9 10,2.1 l 7.8,2.1 5.3,-4.8 c 6.9,-6.2 16.5,-11.9 24.4,-14.4 7.2,-2.2 18.3,-3.7 18.3,-2.4 0,0.5 -3,1.8 -6.6,2.8 -11.4,3.3 -21.7,8.9 -29.3,15.9 -7.1,6.5 -4.8,8 2.7,1.8 6.5,-5.4 16.6,-10.7 23.7,-12.5 13.6,-3.3 21.8,-2.5 9.8,0.9 -8.1,2.3 -20.9,8.7 -26.5,13.2 -2.6,2.1 -4.7,4.1 -4.8,4.4 0,0.4 0.9,0.9 2.1,1.2 1.4,0.4 3.6,-0.5 6.7,-2.8 10.2,-7.2 19.4,-10.8 31,-12 8.2,-0.9 8.1,0.7 -0.3,3 -3.5,0.9 -9.2,3 -12.7,4.6 -6.6,3.1 -15.8,9 -15.8,10 0,1.7 5.6,1.6 8,-0.1 8.5,-6 23,-10.9 32.3,-11 5.8,0 4.4,1.4 -3.4,3.4 -7.5,1.9 -21.8,8.6 -23.9,11.1 -2.1,2.6 0.8,1.8 9.5,-2.4 4.4,-2.2 10.4,-4.4 13.3,-5 5.4,-1.1 16,-1.5 15,-0.6 -0.3,0.3 -3.6,1.4 -7.4,2.5 -7.4,2 -16.7,5.9 -19.8,8.3 -3.8,2.8 0.3,2.8 6.1,-0.1 6.4,-3.2 11.8,-4.7 20.6,-5.7 7.2,-0.9 7.5,0.7 0.5,2.5 -6.4,1.6 -16.8,5.8 -18.8,7.7 -2.5,2.3 1.5,1.6 7,-1.2 4.4,-2.2 15.4,-5.4 18.8,-5.5 2.2,0 1.3,1.8 -1.3,2.4 -3.6,0.9 -15.4,6.7 -16.2,7.9 -0.4,0.7 0,0.7 1.3,0.2 6.5,-2.8 15.4,-5.4 18.4,-5.4 3.2,0 2.8,0.4 -4.9,4 -9,4.2 -10.3,6.1 -2.4,3.5 6.5,-2.2 14.2,-3.5 14.8,-2.6 0.3,0.4 -2.2,1.7 -5.5,2.9 -3.3,1.2 -6.2,2.6 -6.5,3.1 -0.3,0.4 1.6,1.6 4.2,2.6 6.3,2.3 9.3,4.3 9.3,6 0,1.8 -0.2,1.8 -8.3,-0.5 l -6.9,-1.9 -3,4.2 c -1.6,2.2 -4.4,6.4 -6.1,9.3 -3.4,5.5 -4.7,6.5 -4.7,3.5 z m 8.5,-12.8 c 2.6,-5.5 1.3,-4.9 -2,0.9 -1.6,2.9 -2.2,4.6 -1.3,3.9 0.9,-0.7 2.4,-2.9 3.3,-4.8 z M 375,216.6 c 0,-1.7 -3,1.7 -5.5,6.1 -1.4,2.5 -2.5,4.8 -2.5,5.2 0,0.9 7.9,-10.3 8,-11.3 z m -13.4,-3.1 1.5,-3 -2.8,3.2 c -1.5,1.7 -3.6,4.6 -4.7,6.5 l -1.9,3.3 3.2,-3.5 c 1.7,-1.9 3.8,-4.8 4.7,-6.5 z m 40,8 c -1.1,-0.8 -2.7,-1.5 -3.5,-1.4 -0.9,0 -0.2,0.7 1.4,1.4 3.9,1.8 4.5,1.8 2.1,0 z m -7,-2.4 c -1,-1.5 -9.8,-4.2 -9.4,-2.9 0.2,0.6 2.4,1.7 4.9,2.3 2.4,0.7 4.5,1.3 4.7,1.4 0.2,0 0.1,-0.3 -0.2,-0.8 z m -60.1,-13.6 c 1.4,-2.9 1.3,-2.8 -1.8,0.7 -1.7,2 -4,5.1 -5,7 -1.9,3.3 -1.8,3.3 1.7,-0.7 2,-2.2 4.2,-5.3 5.1,-7 z m 14,4.7 c -0.3,-0.3 0.1,-1.2 0.7,-2.1 0.7,-0.9 0.2,-0.7 -1.1,0.4 -1.3,1.1 -3,3.3 -3.8,5 l -1.5,3 3.1,-2.9 c 1.7,-1.6 2.9,-3.2 2.6,-3.4 z m 30.7,2.6 c -2.6,-1.1 -5.1,-1.6 -6,-1.2 -1.2,0.5 -0.4,0.9 2.7,1.5 2.4,0.5 4.6,1.1 4.9,1.4 0.3,0.3 1,0.5 1.6,0.4 0.6,0 -0.9,-1 -3.2,-2.1 z m -60,-10.1 c 1,-1.7 1.5,-3.3 1.2,-3.6 -0.8,-0.8 -3.1,2.4 -6,8.4 l -2.5,5 2.8,-3.4 c 1.5,-1.8 3.6,-4.7 4.5,-6.4 z m 51.8,7.4 c 0,-0.5 -2,-1.6 -4.4,-2.4 -3.9,-1.3 -4.6,-1.3 -5.7,-0.1 -0.9,1.2 -0.6,1.4 2.2,1.4 1.9,0 4.1,0.5 4.9,1 1.9,1.2 3,1.3 3,0.1 z m 13.6,-0.6 c 1.8,-1.3 1.8,-1.4 -0.4,-0.8 -1.2,0.3 -2.5,0.9 -2.8,1.4 -0.8,1.4 1,1.1 3.2,-0.6 z m -84.8,-6.1 c 4.2,-6.5 5.5,-9.4 4.4,-9.4 -0.5,0 -2.8,3.7 -5.2,8.3 -4.9,9.3 -4.7,9.7 0.8,1.1 z M 379,206 c 1.9,-1.1 3.1,-1.9 2.7,-2 -1.2,0 -7.7,2.8 -7.7,3.4 0,1 1.4,0.6 5,-1.4 z m -19.6,0.1 c 0.4,-0.5 -1.7,-1.7 -4.5,-2.6 -4.3,-1.5 -5.3,-1.5 -6,-0.4 -0.6,1.1 0.1,1.5 3.1,2 2.2,0.3 4.3,0.8 4.6,1.2 1,1 2.2,0.9 2.8,-0.2 z m -69.8,-11.7 c 0.8,-1.9 1.2,-3.4 1,-3.4 -0.7,0 -7.6,12.5 -7.6,13.6 0,1.4 5,-6.3 6.6,-10.2 z m 82.8,7.5 c 3.6,-1.7 6.6,-3.3 6.6,-3.5 0,-0.8 -11.5,3.9 -13,5.2 -2.1,2.1 -1,1.7 6.4,-1.7 z m -30.4,0.6 c -2.4,-1.4 -2.3,-1.5 2,-0.9 5.6,0.8 4.5,-0.7 -2.2,-2.9 -4.4,-1.4 -4.8,-1.4 -5.7,0.1 -0.8,1.3 -0.2,2 2.7,3.4 4.5,2.1 6.7,2.3 3.2,0.3 z m 16.6,-2.4 c 0.5,-0.6 4.1,-2.4 7.9,-4.1 3.9,-1.7 5.7,-2.8 4,-2.5 -4.2,0.9 -14.5,5.6 -14.5,6.6 0,1.2 1.4,1.1 2.6,0 z M 258.9,187 c -0.1,-1.7 -4.4,7.2 -5.3,11 -0.3,1.4 0.8,-0.2 2.4,-3.5 1.6,-3.3 3,-6.7 2.9,-7.5 z m 13,9.3 c 2.4,-4.9 3.7,-9.1 2.3,-7.8 -1.2,1.1 -5.4,11.5 -4.7,11.5 0.3,0 1.3,-1.7 2.4,-3.7 z m 56.1,1.6 c -1.9,-1.1 -2.7,-1.8 -1.8,-1.5 0.9,0.3 3.3,0.8 5.2,1.2 5.9,1.1 4.1,-1.1 -2.4,-3.1 -5.7,-1.7 -6.2,-1.7 -7.7,-0.2 -2,1.9 -2.1,1.8 3.7,3.9 6.1,2.2 7.2,2.1 3,-0.3 z m 32.2,-7.4 c 7.9,-3.7 8.5,-4.4 1.7,-2 -7.2,2.6 -14.9,6.8 -14.9,8.3 0,1 0.8,0.7 3,-0.8 1.6,-1.1 6.2,-3.6 10.2,-5.5 z m -178.8,0 c 0.4,-2.7 0.3,-3.3 -0.2,-2 -1.3,2.9 -2.4,9.3 -1.3,7.5 0.5,-0.8 1.2,-3.3 1.5,-5.5 z m 32.6,-4.3 c 0,-3.7 -1.5,-1.6 -2.9,4 -1.6,6.9 -1.3,7.9 0.9,2.9 1.1,-2.4 2,-5.5 2,-6.9 z m 15.6,-0.5 c 0.2,-1.8 0,-2.7 -0.5,-2.1 -1,1 -4.1,11.1 -4,12.8 0.1,1.9 4.1,-7.5 4.5,-10.7 z m 14.8,0.3 c 0.4,-2 0.3,-3 -0.2,-2.5 -1.1,1.1 -4.2,10.3 -4.2,11.9 0.1,1.9 3.7,-5.8 4.4,-9.4 z m 72.6,9.5 c 0,-0.6 -2.6,-1.6 -7,-3 -1.4,-0.4 -2.1,-0.4 -1.7,0.1 0.5,0.5 2.5,1.4 4.5,2 2,0.7 3.8,1.2 4,1.3 0.1,0.1 0.2,-0.1 0.2,-0.4 z M 197.9,187 c -0.1,-2.4 -0.1,-2.4 -1.4,0.5 -0.8,1.7 -1.4,4.1 -1.4,5.5 0.1,2.4 0.1,2.4 1.4,-0.5 0.8,-1.6 1.4,-4.1 1.4,-5.5 z m 151.3,-2 c 10.4,-5.2 11,-5.8 2.8,-2.7 -8.3,3.1 -17,8.4 -17,10.4 0,1.1 0.8,0.8 3,-1.1 1.7,-1.3 6.7,-4.3 11.2,-6.6 z m -29.2,7.2 c 0,-1.1 -13.9,-5.4 -15.1,-4.6 -0.5,0.3 -1.4,1.5 -2,2.6 -1.1,2 -0.9,2.1 3.2,1.6 2.4,-0.3 5.8,-0.2 7.4,0.2 4.3,1.1 6.5,1.1 6.5,0.2 z m -24,-3.3 -3.5,-2 3.5,0.7 c 1.9,0.3 3.9,0.7 4.4,0.8 0.5,0 1,-0.4 1.3,-1 0.2,-0.6 -1.6,-1.6 -3.9,-2.3 -2.4,-0.7 -5,-1.4 -5.9,-1.7 -1.9,-0.5 -4.4,4.2 -2.8,5.2 0.6,0.3 1.3,0.4 1.5,0.1 0.3,-0.3 2,0.1 3.7,0.8 4.7,2.1 5.7,1.7 1.7,-0.6 z m 45.6,-11 c 4.3,-2.1 7.1,-3.9 6.2,-3.9 -2.4,0 -16.8,7.5 -21.1,11 -2,1.8 -3.5,3.6 -3.1,4.1 0.3,0.5 2.7,-0.9 5.3,-3.2 2.7,-2.2 8.4,-5.8 12.7,-8 z m -169.5,8.4 c 1.8,-0.9 2.8,-1.8 2.3,-2 -1.6,-0.5 -6.4,1.5 -6.4,2.7 0,1.3 0.1,1.3 4.1,-0.7 z m 111.9,1.2 c 0,-0.3 -1.5,-1.2 -3.2,-2 l -3.3,-1.4 4.8,0.5 c 3.7,0.5 4.7,0.3 4.7,-0.8 0,-1 -2,-1.8 -6.2,-2.6 -5.6,-1.1 -6.4,-1 -7.6,0.5 -1.4,2 -1,3.9 0.7,3.5 0.7,-0.1 3.1,0.4 5.4,1.2 5,1.8 4.7,1.7 4.7,1.1 z m 43.2,-11.4 c 2.6,-1.8 7.1,-4.3 10,-5.6 2.9,-1.4 4.5,-2.5 3.6,-2.5 -2.5,0 -17.7,8 -22.6,12 -2.5,1.9 -4.2,4.2 -4.2,5.4 0,1.7 0.6,1.4 4.3,-2.1 2.3,-2.2 6.3,-5.4 8.9,-7.2 z m -146.5,8.8 c 0.7,-0.7 2.9,-1.5 4.9,-1.8 2.1,-0.3 3.9,-1.1 4.1,-1.8 0.3,-0.7 -0.4,-1 -1.9,-0.6 -7.7,1.7 -9.7,2.5 -10.2,3.8 -0.6,1.8 1.5,2 3.1,0.4 z m 15.6,-1.9 c 0.7,0 0.6,-0.4 -0.3,-1 -1.2,-0.7 -0.8,-1 1.5,-1.1 4.4,-0.1 7.8,-0.8 8.9,-1.9 1.7,-1.7 0.3,-1.8 -6.9,-0.6 -6.2,1 -7,1.4 -7.3,3.5 -0.3,1.9 0,2.2 1.3,1.7 0.9,-0.3 2.2,-0.6 2.8,-0.6 z m 69.2,0 c -2.8,-1.2 -3.7,-1.2 -3,0 0.3,0.6 1.6,1 2.8,0.9 2.1,0 2.1,-0.1 0.2,-0.9 z m 0.3,-1.2 c 3.9,0.2 5.2,-0.1 5.2,-1.2 0,-1 -1.8,-1.6 -6.2,-2.1 -5.2,-0.6 -6.3,-0.5 -7.4,1 -1.6,2.2 -0.8,3.9 1.5,2.9 0.9,-0.5 4,-0.7 6.9,-0.6 z m -45,-0.4 c -0.2,-0.2 -2.2,-0.8 -4.4,-1.3 l -3.9,-0.9 5.8,-0.1 c 4.2,-0.1 5.7,-0.5 5.7,-1.5 0,-1.2 -1.3,-1.4 -7.2,-0.9 -4,0.3 -7.4,0.6 -7.4,0.7 -0.1,0 -0.5,1.1 -0.8,2.3 -0.7,2.1 -0.5,2.2 5.9,2.2 3.7,-0.1 6.5,-0.2 6.3,-0.5 z m 27.7,-0.9 c -3,-1.4 -2.9,-1.4 1.8,-0.9 3.7,0.5 4.7,0.3 4.7,-0.8 0,-1.1 -1.6,-1.7 -5.7,-2.1 -6.4,-0.7 -7.3,-0.4 -7.3,2.3 0,1.8 1.9,2.5 7.5,2.8 1.4,0.1 1.2,-0.3 -1,-1.3 z m -18,-0.5 c 0.3,-0.5 2.6,-1 5.1,-1 3.2,0 4.4,-0.4 4.4,-1.5 0,-1.2 -1.4,-1.5 -6.4,-1.5 -6.3,0 -7.6,0.7 -7.6,4.1 0,1.2 3.7,1.2 4.5,-0.1 z m 59.5,-4.2 2.3,-3.3 -2.6,2.4 c -1.5,1.4 -2.7,2.8 -2.7,3.3 0,1.4 0.5,0.9 3,-2.4 z m -104.6,-14.9 0.6,-3.4 -1.5,3.3 c -2.1,4.4 -2.9,11.4 -1.9,14.9 0.6,2.3 0.9,1.6 1.5,-4.3 0.3,-3.9 0.9,-8.6 1.3,-10.5 z m 12.7,-5.4 c 2.6,-8.5 6.6,-16.6 11.3,-22.8 4.9,-6.5 2.6,-5.9 -2.5,0.6 -5.2,6.4 -11.4,19.3 -13.3,27.5 -1.1,4.7 -1.1,7.1 -0.3,10.9 l 1.1,4.8 0.8,-7 c 0.4,-3.8 1.7,-10.1 2.9,-14 z m 78.8,17.1 c 0.9,-1.4 3.1,-4.4 5,-6.8 l 3.4,-4.3 -5,4.9 c -2.8,2.6 -5.3,5.9 -5.6,7.3 -0.5,2.6 -0.1,2.5 2.2,-1.1 z m -69.3,-7.7 c 2.1,-11.3 7.6,-22.6 15.8,-32.8 6.5,-8 6.6,-8.3 2.6,-5.1 -12.3,9.8 -22.9,31 -21.3,42.8 0.3,2.3 0.7,4.1 0.9,3.9 0.2,-0.2 1.1,-4.1 2,-8.8 z m 65.6,-6.8 c 4.6,-5.9 4.8,-6.2 1.4,-3.1 -5.6,5.2 -10.5,12.3 -11.2,16.1 -0.5,3.2 -0.4,3.1 2.1,-1.5 1.4,-2.7 4.9,-7.9 7.7,-11.5 z m -27,-4.1 c 3.2,-6.6 5.7,-10.1 11.2,-15.4 3.9,-3.8 6,-6.3 4.6,-5.6 -1.4,0.7 -5.2,4.1 -8.6,7.4 -7.9,7.9 -14.4,20.7 -14.3,28.2 v 4.9 l 1.5,-5.5 c 0.8,-3 3.3,-9.3 5.6,-14 z m -12.5,0.8 c 3.1,-6.8 10,-16.6 15.7,-22.2 4.4,-4.3 4.7,-4.7 1.8,-3 -5.7,3.2 -14.5,13.5 -18.7,21.7 -3.2,6.4 -4,9 -4.2,14.5 l -0.3,6.7 1.9,-6.5 c 1,-3.6 2.7,-8.6 3.8,-11.2 z m 28.7,-4.3 c 2.1,-2.5 5.4,-6.1 7.4,-8.1 2,-2 3,-3.3 2.2,-2.8 -8.8,4.6 -22,22.7 -22,30.1 0,2 1.1,0.6 4.4,-6 2.3,-4.7 6,-10.7 8,-13.2 z m -42,10.1 c 2.7,-11.5 8.1,-21.1 16.5,-29.5 6.9,-6.9 7.1,-7.2 3.1,-5 -6.5,3.7 -13.6,12.1 -18.2,21.8 -3.5,7.2 -4.2,9.8 -4.5,16.1 -0.4,8.4 0.5,7.5 3.1,-3.4 z"
       id="path56"
       inkscape:connector-curvature="0" />
  </g>
</svg>
