<svg xmlns="http://www.w3.org/2000/svg" width="636.62" height="537.38" viewBox="0 0 636.62 537.38"><path d="M128.72,228.21h18.57l40.65,54.73V228.21h21.67v91.45h-19.4L150.4,266.2v53.46H128.72Z" fill="#231f20"/><path d="M437,228.21h22.23v72.64H497.9V319.7H437Z" fill="#231f20"/><path d="M309.51,0h17.94c1,.09,2,.23,2.94.28,3.4.17,6.81.16,10.19.49,4.59.44,9.17,1,13.73,1.75,6.79,1,13.58,2,20.31,3.35C380.28,7,385.86,8.55,391.46,10A246.54,246.54,0,0,1,428.38,23.1c4.61,2,9,4.57,13.61,6.62,7.36,3.28,14.16,7.56,21,11.79,6.38,4,12.41,8.5,18.56,12.84q4.05,2.86,7.94,6c1.75,1.39,3.35,3,5,4.4,1.88,1.62,3.88,3.1,5.68,4.8q5.59,5.3,11,10.77c3.61,3.63,7.33,7.18,10.66,11.06,5,5.91,9.8,12.08,14.67,18.14,1.09,1.36,2.21,2.69,3.18,4.13,2.23,3.29,4.4,6.61,6.54,10,3.33,5.22,6.9,10.33,9.85,15.77,4,7.26,7.42,14.78,11.06,22.21.75,1.52,1.3,3.14,2,4.71-.5.3-.76.5-1.06.64-4.74,2.12-8.82,5.46-13.78,7.27a54.34,54.34,0,0,1-7.84,2.84c-2.75.6-5.38,1.2-8.28,1.85l1.36,2.74a35,35,0,0,0,3.67-.58c3-.78,6.07-1.59,9-2.54a39.11,39.11,0,0,0,6.18-2.44c3.21-1.67,6.29-3.6,9.44-5.41,1-.61,2.13-1.2,3.32-1.87l-1.65-3c2.53-.87,4.8-1.83,7.17-2.42A66.63,66.63,0,0,1,588,161.11c4.52-.32,9.13-.54,13.64.41s9.17,2.06,13.3,4.44c3.08,1.76,6,3.82,9.16,5.42,3.58,1.81,6.9,4.23,10.91,5.15a1.85,1.85,0,0,1,.45.21,1.87,1.87,0,0,1,1,2.45h0c-.45,1.07-1.34.86-2.13.63a49.19,49.19,0,0,1-15-7.4,50.57,50.57,0,0,0-16.69-7.32c-5.41-1.43-11.08-1-16.59-.51-5,.44-9.69,2.56-14.47,4.49,1.5,2.72,3.66,4.92,4.55,7.9.55,1.87,1.76,3.54,2.4,5.4.5,1.46.3,3.19.89,4.59a24.54,24.54,0,0,1,1.67,8.29,5.42,5.42,0,0,0,.23,1.2,22.7,22.7,0,0,1,.62,10,7.58,7.58,0,0,0-.1,3.25,6.58,6.58,0,0,1,.33,2.49,21.53,21.53,0,0,0,.42,4.67,77.14,77.14,0,0,0,2.82,11.52c.42,1.48.73,3,1.24,4.46.72,2.06,1.71,4,2.35,6.11.83,2.7,1.37,5.49,2.12,8.22a28.59,28.59,0,0,1,1.1,9.73c-.22,2.79-.35,5.59-.68,8.36a43.35,43.35,0,0,1-1.24,6.58,82.7,82.7,0,0,0-2.57,14.56,19.32,19.32,0,0,1-.31,2,16.19,16.19,0,0,0-.64,3c0,2.62.2,5.24.28,7.87,0,.78-.13,1.56-.14,2.35,0,2.07-.43,4.22,0,6.19.73,3.27.23,6.52.46,9.77a8.14,8.14,0,0,1,.1,2.91c-.92,2.74-.52,5.65-1.26,8.4-.29,1.1-1.47,2.12-.21,3.36.11.11-.25.71-.4,1.08-.34.83-.71,1.65-1,2.48-.67,1.72-1.3,3.47-2,5.18-.76,1.87-2.17,3.39-2.89,5.28s-1.47,4-2.22,5.93c-.4,1.07-.82,2.13-1.29,3.17-.82,1.83-1.72,3.63-2.52,5.46-.45,1.05-.68,2.2-1.19,3.21a42.41,42.41,0,0,0-2.62,7.91c-1,3.44-1,7.12-2.27,10.54-.56,1.52-.5,3.3-1.19,4.73-2,4.11-4.13,8.13-6.32,12.12-1.3,2.37-3.32,4.29-4.82,6.47-3,4.34-7.51,7.19-10.39,11.55-2.47,1.27-3.59,3.94-5.72,5.58a10.1,10.1,0,0,0-2.59,2.15c-1.61,2.56-4.05,4.42-5.36,7.33s-3.76,5.66-5.7,8.46c0,.07-.09.14-.14.21a13.3,13.3,0,0,0-2.64,4.17,17.53,17.53,0,0,1-1.89,2.84c-1,1.51-1.92,3-2.89,4.55-.55.87-.9,2.08-1.69,2.54-2.09,1.22-2.14,4-4.32,5.14-.4.2-.37,1.15-.67,1.68-.41.75-1,1.43-1.43,2.16-.2.34-.22,1-.44,1.07-1.57.42-2,1.92-2.8,3-1.34,1.77-2.08,4.09-4.68,4.58a.41.41,0,0,0-.2.14,46.15,46.15,0,0,0-4.37,4.25c-1.7,2.11-4.57,2.43-6.28,4.45a1,1,0,0,1-.71.18c-1.27-.12-1.95,1.88-3.44,1-2.4,1.23-5,2.15-7.14,3.75-2.61,2-6,2-8.49,4.16-2.1-.05-3.65,1.27-5.38,2.14a5.76,5.76,0,0,1-1.34.53c-1.91.33-2.91,2.56-5,2.39a.73.73,0,0,1-.14.19,24.83,24.83,0,0,1-2.35,1.72c-1.87,1.07-3.59,2.46-5.75,3-1.77,2.78-5.5,3.41-7.09,6.4-.1.18-.49.18-.64.35-1.33,1.54-3.51,1.82-4.87,3.34a10,10,0,0,1-2.15,1.73q-4.83,3-9.7,6c-.4.24-1,.2-1.38.4-1.68.81-3.74.56-5.21,1.84a3.81,3.81,0,0,1-2.87,1,6,6,0,0,0-1.85.51,19.7,19.7,0,0,1-2.12.61,57.52,57.52,0,0,1-7.27,1.13c-1.8.07-3.48.72-5.39.42-3.47-.55-6.87.58-10.25,1.24-1.8.35-3.44,1.48-5.4.74a2,2,0,0,0-1.23,0c-1.69.54-3.39,1.09-5,1.74a89.23,89.23,0,0,0-9.2,3.84,16.77,16.77,0,0,1-7.88,2.37,1.28,1.28,0,0,0-.88.31c-1.95,2.08-4.74,1.85-7.16,2.43-2,.48-4.28.13-6.43.09s-4.19-.4-6.36-.3a31,31,0,0,1-8.72-1.28,70,70,0,0,0-15.66-1.83c-1.12,0-2-1.38-3.16-.47-2.94-.48-5.77,1.47-8.75.42a1.54,1.54,0,0,0-.74,0l-10.21,1.73c-.24,0-.57.21-.7.11-1.31-1-2.65-.34-4-.14-.31,0-.79.23-.93.09-1.07-1.1-2.26-.43-3.45-.44a49.74,49.74,0,0,1-5.3-.77c-2.57-.32-4.81-2-7.59-1.59a7.59,7.59,0,0,1-3.32-.7c-1.28-.47-2.48-1.15-3.72-1.72-.9-.42-1.8-.82-2.77-1.26-.58.69-1.28,1.09-1.75.69-1.46-1.24-3.27-1.6-5-2.23a79,79,0,0,0-9.83-3.23c-4.3-1-8.64-1.72-13-2.56-1.2-.23-2.78,0-3.52-.73-1-1-2.15-1-3.34-1.25-1.47-.29-3.06-.14-4.35-1.18-.27-.22-.8-.12-1.2-.18-3.75-.53-7.6-.71-10.73-3.28a1.94,1.94,0,0,0-.7-.2A12.52,12.52,0,0,1,202,511.6a2.4,2.4,0,0,0-.81-.56,25.37,25.37,0,0,1-7.6-4.68c-1.49-1.37-3.55-2.08-4.58-4a.65.65,0,0,0-.35-.32c-2-.57-3.35-2.12-5-3.13-2.8-1.68-5.16-4.07-7.7-6.17a11.4,11.4,0,0,0-1.48-1.29c-3.64-2-6.68-4.92-10.08-7.29a85.92,85.92,0,0,0-8.73-5.5c-1.31-.69-1.78-2.2-3-2.62-2.26-.81-3.36-3.28-5.9-3.72-1-.17-1.81-1.35-2.61-2.17-1-1-1.63-2.55-2.76-3-1.66-.62-2.41-1.84-3.46-3-2.24-2.43-4-5.36-7.09-7a1.14,1.14,0,0,1-.54-.79c-.17-1.21-1.1-1.73-1.92-2.39A14.12,14.12,0,0,1,126.5,452c-.79-.93-1.48-2-2.31-2.84a57.15,57.15,0,0,1-4.64-4.7c-2.17-2.91-4.53-5.64-6.92-8.35-.33-.37-.81-.68-1-1.11-.82-2.25-2.68-3.81-3.76-5.9-.91-1.78-2.2-3.36-3.29-5.05a12.34,12.34,0,0,1-1.81-3.07c-1.2-4.23-3.74-7.73-5.94-11.43a22.92,22.92,0,0,1-1.1-2.08,69.75,69.75,0,0,0-3.4-7.21c-1.56-2.63-2.91-5.45-5.36-7.46a2.18,2.18,0,0,1-.63-.75c-1.3-3.08-3.57-5.53-5.47-8.21-.6-.85-1.05-1.8-1.66-2.64-.75-1-1.69-1.94-2.38-3-1.06-1.67-1.8-3.56-3-5.14-2.31-3.08-3.8-6.55-5.43-10a29.87,29.87,0,0,1-2.22-8.87,56.22,56.22,0,0,0-1.06-7.31c-.82-3-.67-5.92-.86-8.89-.14-2.32.19-4.76-1.42-6.81-.25-.33-.15-1-.14-1.45a9,9,0,0,0-2-6.35,1.77,1.77,0,0,1-.38-1.13c.24-3.67-1.85-6.72-2.66-10.12-.47-1.94-1.07-3.88-1.7-5.79s-.78-3.89-1.32-5.84c-.76-2.75-1.28-5.56-1.79-8.37a34.31,34.31,0,0,1-.65-5.34c-.09-3.3.83-6.48,1.42-9.71,1.18-6.52,3.25-12.91,3.15-19.63-.06-3.69.85-7.36.09-11.09a15.69,15.69,0,0,1-.38-6.36c.52-2.24-.44-4.25-.12-6.48s-.68-4.77-.12-7.25a7.43,7.43,0,0,0,.14-3.83c-.7-2.06.23-3.78.84-5.43.86-2.32,1-4.89,2.37-7,.61-.93,1.07-1.95,1.65-2.9.76-1.27,1.68-2.44,2.33-3.76.84-1.71,1.42-3.54,2.23-5.27,1.08-2.27,2.61-4.39,3.33-6.76a29.72,29.72,0,0,1,2.57-5.62,4.22,4.22,0,0,0,.58-3.83H65.77c-1,0-2,0-3-.13a57.89,57.89,0,0,1-13.13-3.45,35,35,0,0,1-6.75-3.47,71.48,71.48,0,0,0-10.47-6.1c-5.25-2.29-10.48-4.51-16.34-4.35-4,.11-8.1.31-12.14.55-1.44.08-2.83.16-3.94-1v-1.49a2.3,2.3,0,0,0,.74,0c5.85-2.16,12-1.82,18-1.32,8.19.67,15.64,3.91,22.51,8.42a57.58,57.58,0,0,0,14.27,7.29,25.85,25.85,0,0,0,7.33,1.55c3.09-7.09,6-14,9.07-20.71,2.5-5.4,5.31-10.65,8-15.95a229.06,229.06,0,0,1,14.59-24c1-1.44,2.07-2.78,3.09-4.19,2.29-3.15,4.4-6.44,6.87-9.44,4.4-5.36,9-10.61,13.57-15.79,2.69-3,5.6-5.87,8.48-8.73,3.75-3.73,7.45-7.55,11.4-11.07,4.13-3.68,8.42-7.2,12.86-10.52,6.81-5.1,13.65-10.2,20.77-14.85s14.55-8.87,22.13-12.82A272.1,272.1,0,0,1,248.11,9.19c8-2.16,16.13-3.63,24.25-5.15,5.52-1,11.11-1.69,16.69-2.35,4.51-.53,9-.81,13.56-1.18C304.9.31,307.21.16,309.51,0ZM381,168.66a12.44,12.44,0,0,1-1.59-.43c-4.94-2.13-9.91-3.93-15.44-3.9-6,0-12-.07-17.83,2.18-4.46,1.73-9.09,3.07-13.11,5.77a57.34,57.34,0,0,1-16.74,7.65,54.24,54.24,0,0,1-23.05,1.47,47.79,47.79,0,0,1-21.75-8.89,20.66,20.66,0,0,0-7.09-3.63c.13.45.12.78.25.86,2.56,1.43,3.28,4.54,5.81,6.15,1.24.79,2.27,2.31,3.44,3.46a41.07,41.07,0,0,1,3.7,4.51,38.07,38.07,0,0,0,2.44,3.61,34.21,34.21,0,0,1,5.3,7.34c.16.28.28.67.53.82,2.51,1.55,3,4.6,5,6.61a32.47,32.47,0,0,1,5.27,7.51c.76,1.38,2.18,1.92,2.86,3.21a8.47,8.47,0,0,0,3.32,3.37c.21.12.58.25.59.39.12,2.49,3.29,2.37,3.8,4.51,2.46,1.38,4.15,3.63,6.23,5.44.55.48,1.66.77,1.73,1.27.29,2,1.83,2.86,3.07,3.9s2.1,3.18,4.33,3.49c1.82-2.16,3.71-4.32,5.49-6.56a36.22,36.22,0,0,1,3.8-4.58c2.23-2,3.86-4.59,6.35-6.44,2.33-1.72,4.2-4,6.46-5.89a9.73,9.73,0,0,0,3.12-3.26c.3-.63,1.52-.81,2.31-1.21.63-.32,1.5-.5,1.82-1,.95-1.52,2.43-2.41,3.68-3.59a36.34,36.34,0,0,0,3.27-3.85c1.19-1.47,2.1-3.28,3.56-4.38,2.58-1.94,4.24-4.62,6.34-6.94,1-1.15,2-2.34,2.95-3.57,1.53-2,3.11-4,4.48-6.1s2.33-4.14,3.5-6.22c.58-1,1.19-2.07,1.8-3.09,2.08,1.18,4.17,2.33,6.23,3.54,3.34,2,6.6,4.06,10,5.91,1.27.7,2.85.79,4.23,1.32A34.69,34.69,0,0,0,413,181.85a106.36,106.36,0,0,0,12.62-.51,43.74,43.74,0,0,0,6.68-1.65c-2.11,3.25-4,6.71-7.46,8.79a2.07,2.07,0,0,0-.87.84c-.71,1.74-2.33,2.61-3.59,3.78a72.92,72.92,0,0,1-6.34,5.3c-2.75,2-4.94,4.77-8.13,6.2a3.79,3.79,0,0,0-1.25,1.14,3.46,3.46,0,0,1-3.08,1.64,4.75,4.75,0,0,0-2.32,1.21,34.23,34.23,0,0,0-2.72,2.35c-.67.58-1.66,1-2,1.76a6.25,6.25,0,0,1-3,3c-1.36.73-1.69,2.23-2.9,3a17.78,17.78,0,0,0-2.07,2c-2.19,2-3.49,4.65-5.35,6.87s-2.58,4.68-4.07,6.89c-1.22,1.81-2.19,3.79-3.32,5.67s-2.42,3.83-3.6,5.77c-1.39,2.31-2.71,4.65-4.1,6.95a7.93,7.93,0,0,1-1,1.09c-1.61,1.81-3.19,3.64-4.82,5.43s-2.46,4.47-4.71,6.08A53.46,53.46,0,0,0,350,271c1.39,2.18,2.81,4.41,4.24,6.63a17.8,17.8,0,0,0,1.33,2c2.15,2.52,4.34,5,6.53,7.5.79.89,1.47,2.18,2.46,2.52,2.73.94,3.57,4,6.18,5,.74,1.66,2.36,2.35,3.69,3.37s2.75,2.15,4,3.31c1.87,1.67,3.39,3.75,5.73,4.88a1.88,1.88,0,0,1,1,1c.79,3.1,4.28,3.95,5.47,6.69,4.26,3,6.85,7.65,10.54,11.22.27.26.29.75.5,1.09a26.57,26.57,0,0,0,3,4.7,13.28,13.28,0,0,1,2.21,2.74c1,1.85,2.8,3.23,3.53,5.39a26.9,26.9,0,0,0,2.38,4.42c1.23,2.18,2.48,4.34,3.73,6.5.07.13.27.18.38.3a18.43,18.43,0,0,1,1.21,1.44c.47.65.85,1.36,1.31,2,.82,1.13,1.73,2.19,2.5,3.34,1.1,1.62,2,3.36,3.18,4.91.92,1.22,2.14,2.2,3.16,3.34.51.58.74,1.64,1.33,1.86,1.45.54,2.13,1.72,3,2.77a8.31,8.31,0,0,0,1.61,1.4c1,.71,2.54,1.1,3,2,1.08,2.07,3.4,2.57,4.66,4.32a3.72,3.72,0,0,0,2.3,1.54c1.87.12,3,1.45,4.18,2.42,2.82,2.38,5.73,4.67,8.46,7.15.91.83,2.22,1.35,2.57,2.88.18.74,1.22,1.28,1.88,1.91l1.78,1.69c1.37,1.3,1.87,3.48,4,4,.15,0,.2.41.32.62.6,1.05,1.15,2.14,1.81,3.15,1.43,2.17,3.18,4.18,4.31,6.5s2.9,4.51,4,7,2.14,5,4.19,6.88a1.5,1.5,0,0,1,.45.86c.38,2.46,2.2,3.85,3.69,5.28a15.29,15.29,0,0,0,6.54-4c1.09-1.16,2.46-2,3.64-3.13s2.43-2.41,3.66-3.6,1.76-3,3.64-3.41c.16,0,.26-.38.38-.59a12.77,12.77,0,0,1,1.52-2c1.89-2,4.32-3.56,4.59-6.66a.69.69,0,0,1,.27-.4c1.86-1.33,2.48-3.58,3.89-5.25a10.56,10.56,0,0,0,1.3-2c1.4-2.75,2.37-5.84,4.25-8.2,1.54-1.92,1.7-4.19,2.83-6.16.92-1.61,1-3.7,1.5-5.56a26.24,26.24,0,0,1,1-2.54c.17-.44.41-.86.56-1.3.9-2.62,1.72-5.28,2.69-7.87.75-2,2-3.93,2.65-5.9,1.67-5.2,4.64-9.65,7.14-14.38,1.07-2,2.36-4,3.46-6,1.44-2.65,2.79-5.35,4.16-8,.13-.27.3-.71.18-.87-.79-1.07.39-1.79.44-2.71a4.86,4.86,0,0,1,.73-1.72c.85-1.65.56-3.6,1.12-5.2,1.11-3.1.5-6.29,1.15-9.37s-1-6.47.15-9.69a.56.56,0,0,0-.1-.47c-1.11-3.78.42-7.62-.32-11.41a.73.73,0,0,1,.07-.48c1.26-1.91.74-4.15,1.17-6.22.7-3.38.93-6.85,1.61-10.23,1.15-5.64,2.58-11.24,2.5-17,0-2.79.08-5.73-.74-8.33s-.59-5.38-2.3-7.61c-.55-4.41-2.49-8.42-3.58-12.67-.23-.87-.15-2-.69-2.57-1.49-1.49-1.72-3.48-2.13-5.26-.92-4-1.41-8-2-12a1.9,1.9,0,0,1,.11-1,5.11,5.11,0,0,0,.54-3c-.18-1.73-.22-3.48-.45-5.21a48.75,48.75,0,0,1-.92-4.79,15.87,15.87,0,0,0-.25-2.06c-.38-2.46-.71-4.94-1.21-7.37a6,6,0,0,0-1.32-2.73A3.68,3.68,0,0,0,537,182a37.31,37.31,0,0,0-4.23,0c-7.21.4-13.92-1.57-20.41-4.35a58.71,58.71,0,0,1-7.91-4.58,59.35,59.35,0,0,0-19.74-8.28,20,20,0,0,0-4.44-.29q-5.84.15-11.65.48c-3.69.2-7,1.9-10.36,3.1a46.69,46.69,0,0,0-9.59,4.59,51.08,51.08,0,0,1-16.4,7.19l1-1.37a14.19,14.19,0,0,1,5.77-4.72c1.51-.66,3-1.36,4.47-2.14,3.22-1.7,6.41-3.46,9.62-5.18a47.22,47.22,0,0,1,18.69-5.27c6.08-.5,12.26-.5,18.21,1.41,2.6.83,5.34,1.4,7.71,2.65,5.41,2.84,10.65,6,15.91,9.1A34.05,34.05,0,0,0,524.12,178c1.25.27,2.53.39,4.21.64a215.9,215.9,0,0,0-18.89-34.26c-8.28-12.31-20.77-27.68-24.36-29.81-3,3.47-6.11,6.93-9.13,10.44-4.63,5.38-9.19,10.84-13.87,16.19-3.75,4.29-7.64,8.45-11.42,12.71-3.07,3.47-6.06,7-9.08,10.52-3.29,3.81-6.61,7.6-9.83,11.46a4.87,4.87,0,0,1-2.65,1.64,48.89,48.89,0,0,1-8.08,1.09,45.79,45.79,0,0,1-14.76-1,44.6,44.6,0,0,1-14.42-6.36c-2.72-1.71-5.52-3.29-8.21-4.88Zm-263.71-3,2.1-4a38.1,38.1,0,0,1,4.63-.61c5.29,0,10.63-.46,15.81,1a74.43,74.43,0,0,1,10.08,3.35c3,1.34,5.71,3.33,8.58,5s6,3.54,9.08,5a33.52,33.52,0,0,0,13.62,3.07c5.22.08,10.44.37,15.54-1.06,2.5-.71,5.17-1,7.66-2.71l-52.73-60.6-8.47,9.62a199.68,199.68,0,0,0-13,16.84,171.4,171.4,0,0,0-12.2,19.6,4.85,4.85,0,0,1-3.47,2.75c-6,1.32-11.42,4.18-16.66,7.34a56.57,56.57,0,0,1-19.41,7.69l-4.6.81c-.11,1.09-.21,2-.32,3.15,1.78-.26,3.34-.36,4.84-.74,3.11-.78,6.16-1.84,9.29-2.56a30.85,30.85,0,0,0,9.86-4.42,43.81,43.81,0,0,1,5.33-3.14c3.14-1.47,6.37-2.79,9.61-4,1.57-.6,3.26-.91,4.89-1.36.12.2.37.44.33.58-.77,2.35-1.94,4.63-2.26,7s-1.86,4.16-2.36,6.4a10.52,10.52,0,0,1-1.23,3.61c-3,4.38-4.16,9.71-7.47,13.93-1,1.21-1.09,3-1.82,4.45-1.42,2.78-3.33,5.34-4.42,8.23-1,2.63-2.36,5.17-3,7.79-1,3.84-1.12,8-1.36,12a55.34,55.34,0,0,0,.38,6.69c.23,4.15.45,8.29.28,12.45-.07,1.63.41,3.27.37,4.91,0,2-.4,3.92-.57,5.88-.07.9.13,1.83,0,2.71C93.49,266.86,93,271.44,92,276a119.92,119.92,0,0,0-1.52,12.4,4.44,4.44,0,0,0,.18,1.45c.58,2.16,1.27,4.29,1.77,6.47,1.12,5,1.61,10,4.42,14.55a46,46,0,0,1,3.54,8,45.17,45.17,0,0,1,2.55,8.82c.23,1.43-.56,3.41,1.6,4.15.09,0,.15.29.15.45a13.5,13.5,0,0,0,1,5.69c.62,1.37-.08,3.33.54,4.7.7,1.58-.19,3.42,1.11,4.76.14,4.09,1.94,7.74,3,11.6.21.79.15,1.78.61,2.36,1.5,1.92,2.1,4.29,3.41,6.34,2,3.13,3.88,6.37,5.85,9.54,1.19,1.9,2.21,4,3.78,5.56s2.07,3.69,3.83,4.94a36.58,36.58,0,0,0,5.64,9.26c.47.63.8,1.36,1.22,2a46.66,46.66,0,0,1,3.9,7.81,15.71,15.71,0,0,0,1.58,2.68c1.24,1.87,2.81,3.48,3.49,5.75a13,13,0,0,0,2.22,3.7c1.21,1.6,2.57,3.07,3.84,4.61,1.41,1.72,2.79,3.47,4.23,5.26a8.42,8.42,0,0,0,1.44-1,30.85,30.85,0,0,0,3.24-3.88c1.57-2.41,4-4.29,6-6.39,1.62-1.64,3.24-3.29,4.9-4.9,2.64-2.55,5.24-5.14,8-7.59.78-.69,1.9-1.19,2.35-2a6.79,6.79,0,0,1,2.55-2.55,10,10,0,0,0,3.65-4.1,7.3,7.3,0,0,1,1.12-1.58c1.19-1.31,2.4-2.61,3.65-3.87a21,21,0,0,0,2-1.64c1.74-2.22,3.26-4.63,5.07-6.78,2.62-3.1,5.52-6,7.48-9.58.38-.7,1.89-1.07,1.9-1.63.06-1.75,1.5-2.24,2.39-3.2a7.77,7.77,0,0,0,2.2-3.11,3.85,3.85,0,0,1,1.3-2,21,21,0,0,0,4.41-4.57c3-3.79,6.51-7.22,9.47-11.07a18,18,0,0,1,2.58-2.11,31,31,0,0,0,2.44-2.42c.54-.6.92-1.35,1.47-2,2.33-2.5,4.61-5,7.07-7.41a5.87,5.87,0,0,0,2.17-3.43,1,1,0,0,1,.34-.63c2.55-1.71,4-4.4,6.16-6.52.5-.5,1.44-.87,1.53-1.41.35-1.93,1.66-2.91,3.1-3.92a8.33,8.33,0,0,0,1.54-1.9,10.72,10.72,0,0,1,1.22-1.54c2-1.74,2.38-4.81,5-6.08.09-.05,0-.32.1-.48,1.28-3.54,4.38-5.74,6.45-8.7a.28.28,0,0,1,.2-.13c2-.16,1.69-2.65,3.29-3.2.32-2,2-3.24,3.24-4.53,2.07-2.2,3.94-4.66,6.42-6.48a19.45,19.45,0,0,0,2.46-2.34c2.19-2.31,4.31-4.68,6.51-7,1.4-1.45,2.91-2.79,4.32-4.23.31-.32.64-1,.52-1.3a11.28,11.28,0,0,0-1.62-2.92c-1.28-1.56-2.71-3-4.1-4.46-1.05-1.11-2.52-2-3.09-3.31-1-2.22-3.08-3.35-4.29-5.33s-3-3.4-4.5-5.05-3.15-3.3-4.73-4.94a1.47,1.47,0,0,0-.55-.41c-1.72-.58-2.72-2.08-3.87-3.27-2-2.08-3.71-4.45-5.57-6.68-.18-.21-.68-.44-.81-.34-.86.59-1.11-.1-1.53-.6-1.67-2-3.35-3.91-5.06-5.83s-3.48-3.81-5.18-5.75a4.55,4.55,0,0,1-1.27-2,4,4,0,0,0-1.07-2.12c-1.18-1.4-2.23-2.92-3.41-4.33-.92-1.09-2.33-1.94-2.84-3.17-.63-1.53-1.59-2.82-2.26-4.27s-2-2.49-2.88-3.81c-.14-.2-.46-.33-.48-.52-.34-2.38-2.92-3-3.92-5-.78-1.58-2.45-2.83-3.14-4.66-.13-.35-.25-.83-.52-1-1.67-.93-3.37-1.76-4.08-3.75-.08-.24-.58-.29-.81-.51-.64-.64-1.25-1.3-1.87-2a34.43,34.43,0,0,0-2.63-2.88c-1.5-1.35-3.13-2.55-4.65-3.89s-2.19-1.41-3.68-.81c-2.51,1-5,2-7.58,2.93A51.19,51.19,0,0,1,174,180.85a41.94,41.94,0,0,1-15.3-6.22A55.08,55.08,0,0,0,147,168.1c-1.78-.68-3.55-1.41-5.37-1.95a30.4,30.4,0,0,0-6.65-1.59,117.32,117.32,0,0,0-12.44,0,29.58,29.58,0,0,0-5.27,1.11Zm268.59,272c-.24-1.06-1-1.29-2-1.13-3.08.51-6.17,1-9.23,1.58-5.78,1.17-11.53,2.46-17.3,3.67a6,6,0,0,1-1.74.08c-3.44-.27-6.9-.42-10.32-.89-3.9-.53-7.76-1.38-11.65-2-3.4-.57-6.82-1.1-10.24-1.53-2.21-.29-4.45-.28-6.66-.57-1.05-.14-2-.72-3.18-.37a33.72,33.72,0,0,1-3.89.55c-4.94.85-9.92,1.53-14.81,2.63a58.82,58.82,0,0,1-20.66.85,8.08,8.08,0,0,0-1.2.09,24.17,24.17,0,0,1-3.61,0c-1.37-.19-2.68-.76-4-1-1.12-.22-2.63-.73-3.36-.23-1.53,1.05-2.78.35-4.18.13-3.32-.53-6.64-1.16-10-1.43a29.29,29.29,0,0,0-6.13.44c-2.85.37-5.67.88-8.5,1.33-1.14.18-2.44.83-3.37.49-2.26-.85-4.18.35-6.24.55-4.09.42-8.15,1.1-12.24,1.43A38.39,38.39,0,0,1,205,442,65.14,65.14,0,0,1,194,440.32c-2.22-.58-4.57-1.4-6.76-1.16-3.13.34-6.1-.32-9-.8-3.59-.6-6.93,0-10.56.33.25.41.33.67.5.79,1.11.77,1.92,1.86,3.34,2.35,1.14.4,1.86,1.87,3,2.45,2.16,1.13,3.52,3.29,5.82,4.23a17.79,17.79,0,0,1,2.63,1.55c.19.12.43.29.49.48.44,1.45,1.75,1.83,2.89,2.49a9.49,9.49,0,0,1,3.2,2.34,7,7,0,0,0,2.72,2.49,11,11,0,0,1,3,2.38,13.09,13.09,0,0,0,3,2.6c3,1.42,5.51,3.61,8.15,5.56a38.45,38.45,0,0,0,7.25,3.92c1.67.76,3.51,1.2,5.11,2.08,2.85,1.57,6,1.86,9.07,2.75a2.41,2.41,0,0,0,.38,0c.68,1,1.22,2,2.76,2.1a21.2,21.2,0,0,1,3.94.89c1.46.34,2.94.59,4.37,1a43.48,43.48,0,0,0,4.3,1.6c2.95.55,5.44,2.06,8,3.38,2.78,1.41,5.36,3.2,8.37,4.14.39.12.78.46,1.14.42,2.38-.28,4.28.71,6.3,1.82,1.58.87,3.21,2.28,5.36,1.45a1.31,1.31,0,0,1,1.16.23c2.27,2,5.24,2.24,7.93,2.6a56,56,0,0,0,12.54.33c3.13-.31,6.33-.09,9.43-.85a19.73,19.73,0,0,1,2.64-.47c2.37-.28,4.74-.55,7.11-.75a4.83,4.83,0,0,1,1.6.3,9.47,9.47,0,0,0,1.38.4c2.71.21,5.44.27,8.13.6,2.85.35,5.65,1.2,8.5,1.35,3.72.2,7.31,1.63,11.11,1.08,1.39-.2,2.87.9,4.25-.28.19-.16.64,0,1,0,2.74.35,5.37.31,7.9-1.19,3.33-2,7.25-2.55,10.74-4.26a96.43,96.43,0,0,1,10.29-3.86c.83-.29,2-.15,2.56-.66a5.52,5.52,0,0,1,5.71-1.25,1.7,1.7,0,0,0,1,0c1.77-.57,3.5-1.27,5.28-1.74,1.49-.39,3.08-.4,4.57-.8,2.43-.66,2.92-.77,4.91-.42a3.69,3.69,0,0,0,1.24,0c3.37-.75,6.73-1.55,10.1-2.28,1.35-.29,2.75-.41,4.1-.67a14.42,14.42,0,0,0,2.32-.7,36.46,36.46,0,0,1,5.62-2.17,7.37,7.37,0,0,0,3.21-1.57,31.45,31.45,0,0,1,2.74-2,58,58,0,0,0,8.53-5.88,26.39,26.39,0,0,1,2.47-2.13c1-.68,1.37-2,2.1-2.55a45.71,45.71,0,0,0,6-5.47,15.69,15.69,0,0,1,5.42-4.24c2.36-1,3.12-3.65,5.21-5.08,1.29-.89,2.57-2,3.86-3a49.31,49.31,0,0,0,4.29-3.52c.68-.65,1.08-1.39,2.17-1.7a3.73,3.73,0,0,0,2.44-2.67c-3.83-.46-7.47-1.07-11.13-1.26a46.6,46.6,0,0,0-7.65.49A52.08,52.08,0,0,0,449,439c-1.89.45-3.66,1.41-5.56,1.78A130.64,130.64,0,0,1,430.14,443a53.68,53.68,0,0,1-11.12-.15c-4-.46-8-1.55-12-2.36-1.45-.29-3.4-.09-4.23-1-1.07-1.14-2.14-1-3.27-1.14-1.71-.26-3.48-.22-5.14-.63a23.69,23.69,0,0,0-8.48,0ZM467.61,98.1l.2-.42c-1.16-1-2.25-2.18-3.49-3.12-4.93-3.76-9.9-7.46-14.86-11.18a178.44,178.44,0,0,0-22.79-14.09,234.08,234.08,0,0,0-21.8-10.13,202,202,0,0,0-30.33-10,269.84,269.84,0,0,0-29.72-5.39c-4.83-.59-9.69-1.12-14.55-1.33-5.72-.25-11.46-.23-17.19-.15-4.63.06-9.28.27-13.9.64-6.75.54-13.41,1.75-20.09,2.84a201.78,201.78,0,0,0-38.51,10.16c-6.18,2.32-12.28,4.87-18.31,7.57-4.9,2.2-9.74,4.6-14.42,7.24-5.62,3.16-11.08,6.63-16.53,10.07-3.29,2.08-6.49,4.31-9.64,6.59-2.67,1.94-5.22,4-7.79,6.12-1.68,1.35-3.52,2.56-4.73,4.61ZM413,402c-.72-.79-1.25-1.35-1.75-1.93-1.3-1.53-2.6-3.05-3.89-4.59a29.72,29.72,0,0,1-3.39-4.19,18.78,18.78,0,0,0-3.78-5.27,23.68,23.68,0,0,1-3.34-3.73c-.94-1.28-2.42-2.14-3.6-3.27-.92-.89-1.69-1.95-2.62-2.84-1.11-1.07-2.29-2.07-3.48-3.05-1.46-1.2-1.92-3.08-3.4-4.41-2.57-2.3-5.46-4.34-7.49-7.23-2.45-.93-3.48-3.4-5.37-4.94a12.14,12.14,0,0,1-2.33-2.31c-1.71-2.47-4.73-3.85-5.69-6.92,0-.07-.12-.12-.18-.17-2.78-2.19-4.67-5.17-6.87-7.87-1.65-2-3-4.23-4.72-6.21s-3.2-4.18-5-6.09a17,17,0,0,1-1.71-1.79A78.18,78.18,0,0,0,335.47,315a18.82,18.82,0,0,1-2.55-2.94,13.28,13.28,0,0,0-3.14-3.62,11.56,11.56,0,0,1-3.27-3.23c-1.46-2.72-3.93-4.34-6-6.54-1.62,1.11-3,2.17-3.64,4a3.42,3.42,0,0,1-2,2.36,2.33,2.33,0,0,0-1.06,1c-1.38,2.21-2.72,4.44-4,6.68a17.1,17.1,0,0,1-1.11,2.12c-1.69,2.09-2.51,4.83-4.84,6.44-.15.1-.07.49-.18.7a19.39,19.39,0,0,1-1.95,3.32c-1.7,2-3.55,3.81-4.42,6.37a5.24,5.24,0,0,1-1.1,1.61c-1.95,2.16-4.25,4-5.78,6.54a15.27,15.27,0,0,1-2.87,2.92c-.64.61-1.39,1.09-2,1.73-2.68,2.81-4.86,6.15-8.49,8-.49.24-.8.82-1.24,1.18-2.53,2.1-4.08,5.14-6.89,7-1.4.93-2.38,2.48-3.75,3.48a9.55,9.55,0,0,0-3.85,5.89,3.23,3.23,0,0,0-2.33,1.85c-.63,1.29-2.46,2-2.92,3.34a8.74,8.74,0,0,1-2.31,3.32,38.34,38.34,0,0,0-4.94,6.8,28.61,28.61,0,0,1-3.75,5.33c-2.5,2.48-4,5.58-6.12,8.47,7.58-1,14.94-.11,22.25,1.53l.64-1.24c2.82.61,5.53,1.26,8.27,1.74a13.17,13.17,0,0,0,2.87-.2,9.14,9.14,0,0,1,1.48,0,54.33,54.33,0,0,0,11.75.41c5.92-.65,11.66-2,17.49-3,2.19-.36,4.38-.75,6.58-1a26.06,26.06,0,0,1,5.14-.45c2.43.16,4.82.85,7.25,1a109.43,109.43,0,0,1,17.24,2.88c4.28,1,8.64,1.08,13,1.65,2.54.34,4.84-.64,7.24-1.12,5.63-1.13,11.3-2.05,16.95-3.07,1.21-.22,2.4-.64,3.62-.77a19.23,19.23,0,0,1,6.05.36c2.88.59,5.91.38,8.87.63a48.19,48.19,0,0,1,6.08.9c1.05.23,2,1.13,3,1.35C407.3,401.19,410,401.54,413,402ZM257.43,162.77a7.88,7.88,0,0,1,1.19,0c4.72,1.08,8.92,3.34,13.06,5.75,3.84,2.24,7.57,4.71,11.56,6.65,7.94,3.88,16.55,4,25,3.11,7.44-.78,14.33-3.73,20.75-7.65,6.15-3.76,12.59-6.89,19.7-8.42a54,54,0,0,1,25.56.36c2.45.65,4.81,1.64,7.44,2.56L403,140.68H234.07c5.8,6.87,11.79,13.26,17.54,20.53-15.55-1.49-29,2.69-41.19,11.36l2.11,2.3c1.74-1.09,3.43-2.29,5.23-3.26s3.86-1.9,5.84-2.73,3.86-1.5,5.82-2.15a48.85,48.85,0,0,1,5.92-1.72,45.74,45.74,0,0,1,6.38-.78,53.61,53.61,0,0,1,6.21,0,48.63,48.63,0,0,1,6.37.8c1.9.38,3.76,1,6.07,1.68Z"/></svg>