<svg xmlns="http://www.w3.org/2000/svg" width="34.42cm" height="12.39cm" viewBox="0 0 975.67 351.23"><path d="M909.11,252.3c2.3-2,4.7-3.8,6.89-5.88,5.12-4.84,10.54-8.82,18.16-7.36,9.14,1.75,12.57,8.59,14.34,16.63a47.75,47.75,0,0,1,.93,9.93q.12,36.74,0,73.49c0,6.42-.82,7.27-7.11,7.33q-7.26.07-14.5,0c-6.16-.07-7-.89-7-6.87q0-29.49,0-59c0-7.43-1.4-9.93-5.48-9.82-5.19.14-7.91,3.74-7.91,10.52q0,29,0,58c0,6.28-.86,7.12-7.27,7.17-5.67,0-11.33,0-17,0-4,0-6-1.55-6-5.95q.15-47,0-94c0-4,1.59-5.23,5.37-5.11,6.33.2,12.68.29,19,0,4.61-.22,6.53,1.43,6,6a20.65,20.65,0,0,0,.24,3.91Z" transform="translate(-18.01 -18.84)"/><path d="M963.61,258.58V179.06c0-7.19.31-7.49,7.72-7.51,5.5,0,11,.11,16.5,0,4.28-.1,5.84,1.77,5.84,6q-.13,81.27,0,162.54c0,4.52-1.67,6.44-6.11,6.37-6-.1-12-.11-18,0-4.49.08-6.06-1.88-6-6.38C963.68,312.93,963.61,285.75,963.61,258.58Z" transform="translate(-18.01 -18.84)"/><path d="M416.11,294.18c0,.5-.07,7.08.48,13.85.57,7,7,6.65,7,6.65s6.43.38,7-6.65c.55-6.77.47-13.35.47-13.85s.08-7.06-.47-13.83c-.57-7-7-6.66-7-6.66s-6.42-.38-7,6.66c-.55,6.77-.48,13.34-.48,13.83m-61.41-11.3s.14-12.63-8.77-12.63c-8.66,0-9.38,10.46-9.38,12.59s4.16,2,4.16,2h9.78c4.72,0,4.21-2,4.21-2m161.66,0s.14-12.63-8.77-12.63c-8.67,0-9.39,10.46-9.39,12.59s4.17,2,4.17,2h9.79c4.7,0,4.2-2,4.2-2m196.94,11.3c0-.49.07-7.06-.48-13.83-.57-7-7-6.66-7-6.66s-6.42-.38-7,6.66c-.55,6.77-.49,13.34-.48,13.83s-.07,7.75.48,14.52c.32,4.07,2.61,5.65,4.48,6.27a5.72,5.72,0,0,0,2.4.49,5.46,5.46,0,0,0,1.85-.29c1.95-.42,4.87-1.82,5.25-6.47.55-6.77.48-14,.48-14.52m105-23.56v69.74s.18,3.15-4.71,3.15h-17c-4.9,0-4.71-3.15-4.71-3.15V280.58s.51-6.52-4.35-6.52c-6,0-8,4.46-8,6.47v59.83s.18,3.15-4.71,3.15H756.38c-4.89,0-4.71-3.15-4.71-3.15v-91c0-2.76,3.62-2.47,3.62-2.47H776s3.62-.29,3.62,2.47v7.29a8.51,8.51,0,0,0,4.42-1.5c1.74-1.3,8.33-10.62,17.14-10.62,19.19,0,17.21,26.09,17.21,26.09m-75.54,24.9h0c0,48.28-29.52,49.56-34.63,49.56-.62,0-1.45,0-2.35,0s-2-.07-2.62-.07c-5.1,0-34.55-4.37-34.55-49.52h0v0c0-52,32.89-50.69,36.29-50.69.24,0,.51,0,.78,0s.55,0,.77,0c3.41,0,36.29-1.26,36.31,50.69v0Zm-81.58-75.35a16.76,16.76,0,1,1-16.76-16.39,16.58,16.58,0,0,1,16.76,16.39m-30.71,29.19c0-2.76,3.62-2.47,3.62-2.47h20.65s3.63-.29,3.63,2.47v91s.18,3.15-4.72,3.15H635.22c-4.89,0-4.71-3.15-4.71-3.15v-91ZM542,302.5c-.91,3-5.61,2.81-5.61,2.81H498.29c0,7.7.39,16.3,9.3,16.3,6.34,0,7.57-4.25,8.11-6.25.66-2.53,4.24-2.17,4.24-2.17h16.31c3.53,0,3.35,2.71,3.35,2.71S541.41,346,506.45,346s-36.87-43.48-36.87-43.48S462.7,244.81,506,244.81c43.66,0,37,54.31,36,57.69m-161.65,0c-.92,3-5.62,2.81-5.62,2.81h-38c0,7.7.38,16.3,9.29,16.3,6.34,0,7.58-4.25,8.12-6.25.65-2.53,4.24-2.17,4.24-2.17h16.3c3.53,0,3.35,2.71,3.35,2.71S379.76,346,344.79,346s-36.86-43.48-36.86-43.48-6.89-57.69,36.41-57.69c43.65,0,37,54.31,36,57.69m-77.83-29.63s.09,2.45-1.81,2.45c-1.63,0-21.51-1.45-21.52,13v52s.19,3.14-4.71,3.14H256c-4.9,0-4.71-3.14-4.71-3.14v-91c0-2.75,3.62-2.47,3.62-2.47h20.65s3.62-.28,3.62,2.47v7.31a8.45,8.45,0,0,0,5.76-2.9c2.91-3.26,8.15-9.24,15.76-9.24,1.56,0,1.81.91,1.81,2.35Zm546.82,97.2V160.13L617.5,185.19V340.36s.18,3.15-4.71,3.15H594.31c-4.89,0-4.71-3.15-4.71-3.15V188.22l-9.78,1.05V340.36s.18,3.15-4.71,3.15H556.63c-4.89,0-4.71-3.15-4.71-3.15V192.29L416.56,206.92v49.69a8.07,8.07,0,0,0,5.71-2.77c3.12-3.34,9.06-9.36,15.57-9.36s24.65,5.11,24.65,46.6-17,53.8-24.65,53.8c-4.16,0-8.65.21-13.57-4.16-5.62-5-5.41-5.58-6.85-5.37a1,1,0,0,0-.86.94v4.07s.18,3.15-4.71,3.15H393.37c-4.88,0-4.71-3.15-4.71-3.15V209.94L80.4,243.27v126.8Z" transform="translate(-18.01 -18.84)" fill="#130c0e"/><path d="M638.69,107.32v54.34l12.39-1.33v-53s.49-6.51-4.36-6.51c-6,0-8,4.45-8,6.46m-80,13.37c0,.48-.07,7.73.48,14.5.32,4.07,2.61,5.66,4.48,6.27a5.72,5.72,0,0,0,2.4.49,5.46,5.46,0,0,0,1.85-.29c2-.41,4.87-1.82,5.25-6.47.55-6.77.48-14,.48-14.5s.07-7.07-.48-13.85c-.57-7-7-6.65-7-6.65s-6.42-.38-7,6.65c-.55,6.78-.48,13.36-.48,13.85m-457.37-11s.16-12.62-8.76-12.62c-8.66,0-9.38,10.45-9.38,12.59s4.16,2,4.16,2h9.79c4.7,0,4.19-2,4.19-2M523.54,47a16.76,16.76,0,1,1-16.76-16.39A16.58,16.58,0,0,1,523.54,47M486.3,94.4a2.82,2.82,0,0,1-3,3H477.2v69.75s.18,3.13-4.71,3.13H454c-4.88,0-4.71-3.13-4.71-3.13V97.41h-6.12a2.82,2.82,0,0,1-3-3V76.5A2.72,2.72,0,0,1,443,73.68h6.34v-24c0-2.75,3.62-2.46,3.62-2.46h20.66s3.62-.29,3.62,2.46v24h6.34a2.72,2.72,0,0,1,2.76,2.82Zm-54.42,66.85a11.53,11.53,0,0,1-.87,4.27c-2.94,5.66-13.61,6.2-16.35,6.2-5.11,0-34.58,2.24-34.59-49.71v0c0-51.95,32.89-50.69,36.3-50.69,2.73,0,8.5,1.16,11.23,3.33A10.4,10.4,0,0,1,431,78.47a11.5,11.5,0,0,1,.87,4.27V98.59c0,3-2.26,2-2.26,2s-3.81-1.9-6.35-1.9C411,98.68,411,121.21,411,122v0h0c0,.76,0,23.3,12.3,23.3,2.54,0,6.35-1.91,6.35-1.91s2.26-1,2.26,2ZM373.19,97.41v69.75s.17,3.13-4.72,3.13h-17c-4.9,0-4.72-3.13-4.72-3.13V107.37s.51-6.51-4.34-6.51c-6,0-8,4.45-8,6.46v59.84s.18,3.13-4.71,3.13H311.23c-4.89,0-4.71-3.13-4.71-3.13v-91c0-2.76,3.62-2.47,3.62-2.47h20.65s3.63-.29,3.63,2.47v7.28a8.52,8.52,0,0,0,4.42-1.49c1.74-1.31,8.33-10.62,17.14-10.62,19.19,0,17.21,26.09,17.21,26.09M299.27,47a16.76,16.76,0,1,1-16.75-16.39A16.57,16.57,0,0,1,299.27,47M258.18,94.4a2.81,2.81,0,0,1-3,3h-6.13v69.75s.19,3.13-4.71,3.13H225.91c-4.9,0-4.72-3.13-4.72-3.13V97.41h-6.11a2.81,2.81,0,0,1-3-3V76.5a2.71,2.71,0,0,1,2.74-2.82h6.34v-24c0-2.75,3.63-2.46,3.63-2.46h20.65s3.62-.29,3.62,2.46v24h6.34a2.72,2.72,0,0,1,2.75,2.82ZM206.7,170.29H181.6a5.19,5.19,0,0,1-4.24-2.77c-1.43-2.55-8.88-18.66-8.88-18.66a2.36,2.36,0,0,0-4.35,0s-7.45,16.11-8.87,18.66a5.2,5.2,0,0,1-4.24,2.77H125.91c-2.72,0,0-4.4,0-4.4s24.45-40.94,25.36-42.84a5,5,0,0,0,0-3.9s-22-39.31-23.91-42.66,3.35-2.81,3.35-2.81h22.55c4,0,4.89,2.54,4.89,2.54s5.62,13,6.52,15c1,2.28,1.63,2,1.63,2s.58.29,1.64-2c.91-2,6.52-15,6.52-15s.9-2.54,4.89-2.54h22.56s5.25-.55,3.35,2.81-23.91,42.66-23.91,42.66a5,5,0,0,0,0,3.9c.9,1.9,25.35,42.84,25.35,42.84s2.72,4.4,0,4.4m-79.78-41c-.9,3-5.61,2.81-5.61,2.81h-38c0,7.69.37,16.29,9.29,16.29,6.34,0,7.57-4.25,8.11-6.25.65-2.53,4.25-2.17,4.25-2.17h16.3c3.54,0,3.35,2.72,3.35,2.72s1.81,30.07-33.15,30.07S54.56,129.3,54.56,129.3,47.67,71.6,91,71.6c43.67,0,37,54.31,36,57.7M268.56,76.15c0-2.76,3.63-2.47,3.63-2.47h20.65s3.62-.29,3.62,2.47v91s.19,3.13-4.71,3.13H273.28c-4.9,0-4.72-3.13-4.72-3.13v-91Zm224.27,0c0-2.76,3.63-2.47,3.63-2.47h20.65s3.62-.29,3.62,2.47v91s.18,3.13-4.71,3.13H497.55c-4.9,0-4.72-3.13-4.72-3.13v-91Zm294.06,69.49V18.84H18V228.77l539.28-58.3C547,167.68,529,157.48,529,122v0c0-51.95,32.89-50.69,36.29-50.69.24,0,.51,0,.78,0s.55,0,.77,0c3.41,0,36.28-1.26,36.31,50.69v0c0,28.3-10.14,40.4-19.57,45.61l27.24-2.94V76.15c0-2.76,3.62-2.47,3.62-2.47h20.64s3.63-.29,3.63,2.47v7.28a8.57,8.57,0,0,0,4.43-1.49c1.73-1.31,8.32-10.62,17.13-10.62,19.2,0,17.21,26.09,17.21,26.09v60.06Z" transform="translate(-18.01 -18.84)" fill="#130c0e"/></svg>